<svg xmlns="http://www.w3.org/2000/svg" id="Layer_1" data-name="Layer 1" viewBox="0 0 30 30"><defs><style>.cls-1{fill:#6baea3;}.cls-2{fill:#6baea4;}.cls-3{fill:#6aaea3;}.cls-4{fill:#edf5f3;}.cls-5{fill:#f1f7f6;}.cls-6{fill:#f3f9f8;}.cls-7{fill:#7bb5ac;}.cls-8{fill:#7eb7ae;}.cls-9{fill:#e8f2f0;}</style></defs><title>icono</title><path class="cls-1" d="M.23,20V9.94a16.09,16.09,0,0,1,2,.15l.15.15v9.65h2V24h2v2h4.05c0,.35,0,.67,0,1s0,.63,0,.95H20c0,.23.19.13.3.15v2H10.18V28H6.09V26.07h-1a4.65,4.65,0,0,1-.94,0V24.26L4,24.11H2.19c0-1.35,0-2.65,0-4a.12.12,0,0,0,0-.06L2.11,20Z"></path><path class="cls-1" d="M20.27.15v2l-.15.15H10.33l-.15-.15v-2Z"></path><path class="cls-1" d="M28.11,9.94h2V20h-2v-.15a5,5,0,0,1-.14-.62,6,6,0,0,1,0-.68V10.1Z"></path><path class="cls-1" d="M28,10.1v8.5a6,6,0,0,0,0,.68,5,5,0,0,0,.14.62c-.35,0-.7,0-1.05,0s-.7.12-1.06.18c0,1.27,0,2.52,0,3.76a.12.12,0,0,1,0,.06l-.05,0H24.19l-.15.15v1.66l-.15.15H20.23l-.06,0h0L20,27.87H10.33c0-.31,0-.63,0-.95s0-.65,0-1H6.28V24h-2V19.89h-2V10.25l2-.2V6.33l.15-.15H6.26v-2h4.07v-2h9.79v2H24v2h1.81l.15.15V10.1Z"></path><path class="cls-2" d="M20,27.87l.19-1.92h0l.06,0H24l.15.15v2H20.27C20.16,28,20,28.1,20,27.87Z"></path><path class="cls-3" d="M4.3,6.33V10l-2,.2-.15-.15V6h2l.15.15Z"></path><path class="cls-4" d="M4.15,24.26,4,24.11Z"></path><path class="cls-5" d="M20.27,28h.15l-.15.15Z"></path><path class="cls-3" d="M10.33,2.26v2H6.26l-.15-.15v-2h4.07Z"></path><path class="cls-2" d="M6.11,4.07l.15.15v2h-2L4.15,6v-2Z"></path><path class="cls-4" d="M4.15,5.88V6H4Z"></path><path class="cls-3" d="M24.19,26.07,24,25.92V24.11l.15-.15h1.73l.05,0a.12.12,0,0,0,0-.06c0-1.25,0-2.5,0-3.76.36-.07.71-.15,1.06-.18s.7,0,1.05,0v4.2H26.17v2h-2Z"></path><path class="cls-6" d="M24.19,26.07h.15l-.15.15Z"></path><path class="cls-3" d="M24,4.22H20.12v-2l.15-.15H24l.15.15V4.07Z"></path><path class="cls-3" d="M28,10.1H26V6.18L26.15,6H28l.15.15V9.94Z"></path><path class="cls-2" d="M26.15,6,26,6.18H24v-2l.15-.15h2Z"></path><path class="cls-7" d="M24.19,2.26,24,2.11Z"></path><path class="cls-8" d="M28.11,6.18,28,6Z"></path><path class="cls-4" d="M4.3,6.18h.15l-.15.15Z"></path><path class="cls-4" d="M25.85,6.18H26v.15Z"></path><path class="cls-7" d="M24.19,24l-.15.15Z"></path><path class="cls-9" d="M24,25.77v.15h-.15Z"></path><polygon class="cls-1" points="0.23 9.94 3 9.94 3 11.67 1.67 11.67 0.23 9.94"></polygon></svg>