<svg xmlns="http://www.w3.org/2000/svg" id="Layer_1" data-name="Layer 1" viewBox="0 0 30 30"><defs><style>.cls-1{fill:#fff;fill-rule:evenodd;}</style></defs><title>insta</title><path class="cls-1" d="M6.27,24.21s-.06-.08-.08-.1A1.89,1.89,0,0,0,6,23.92l-.1-.12,0,0,0,0-.17-.19s0,0,0,0h0c0-.06-.09-.12,0-.06s0,0-.07-.1a3.21,3.21,0,0,1-.24-.29,1.14,1.14,0,0,1-.15-.26l0,0c-.06-.1-.2-.3-.15-.27l0,0h0s0,0,0,0,0-.1-.08-.19h0s0-.06-.16-.24v0l-.32-.56-.2-.35-.07-.12a3.11,3.11,0,0,1-.19-.36c0-.09-.08-.19-.13-.27a5.23,5.23,0,0,1-.36-.84l-.15-.45h0a3.22,3.22,0,0,0-.11-.33l-.09-.39A10.59,10.59,0,0,1,3,17a8,8,0,0,1-.1-1.35c0-.27,0-.57,0-.88h0A7.89,7.89,0,0,1,3,13.66c0-.13,0-.28.07-.42a1,1,0,0,1,0-.19c0-.14.07-.31.11-.46l.06-.24.05-.2v0c0-.14.08-.31.14-.46h0l.21-.58.06-.17v0l0,0c.1-.27.25-.57.38-.81h0s0,0,0,0l0-.06a2,2,0,0,0,.09-.21l0-.09c.1-.2.22-.37.33-.54h0L4.76,9a7,7,0,0,1,.66-1l.09-.11.08-.1.11-.15c.12-.14.26-.27.39-.43l.37-.4.07-.08a2.9,2.9,0,0,1,.39-.36l.32-.3a7.89,7.89,0,0,1,.87-.66,7.29,7.29,0,0,1,1-.61h0a1.28,1.28,0,0,0,.21-.14l0,0s0,0,0,0c.27-.19.34-.22.19-.19l.21-.12.12-.06.05,0a6.61,6.61,0,0,1,.87-.37l.93-.31,1-.22a2.51,2.51,0,0,1,.44-.07h.18l.11,0,.13,0,.35,0,.29,0h.34l.21,0h.43c.16,0,.37,0,.55,0l.29,0a3.05,3.05,0,0,1,.45,0l.24,0,.29,0,.24,0a.72.72,0,0,0,.23,0h0l.66.17.13,0,.43.1.18,0c.07,0,.15,0,.12,0s0,0,.1,0,.19.05.16,0h0l.09,0s.06,0,0,0,0,0,0,0l.05,0-.08,0s0,0,0,0,0,0,0,0,0,0,.21,0l.24.07s0,0,0,0h0l.2.07.26.14h0a.35.35,0,0,0,.14.07.93.93,0,0,1,.17.07l.2.09h0a1.82,1.82,0,0,1,.27.13l.17.11c.27.16.48.31.77.47a2,2,0,0,1,.29.2l0,0a2.4,2.4,0,0,1,.36.28l.08.06a2.27,2.27,0,0,1,.39.3l.75.69.07.07.63.71h0l.09.1h0a2.89,2.89,0,0,1,.4.52h0l.13.18a1.13,1.13,0,0,1,.14.18,1.38,1.38,0,0,0,.19.26c.05.08.15.24.22.38l0,0A1.47,1.47,0,0,0,26,9h0a4.21,4.21,0,0,1,.37.66l.14.32.06.13,0,.05c0,.09.07.18.12.26s.06.12.07.18.07.19.1.3c.1.3.22.59.29.89l.14.55v0c0,.13.07.27.1.41a2.62,2.62,0,0,1,0,.28l0,.19c0,.23.07.46.09.68s0,.17,0,.26,0,0,0,0h0a2.74,2.74,0,0,1,0,.31,6.41,6.41,0,0,1,0,1.19c0,.1,0,.22,0,.34s0,.16,0,.23c0,.28-.08.58-.13.87a7.91,7.91,0,0,1-.21,1v0c-.06.2-.1.42-.17.63l-.35,1a.77.77,0,0,1-.08.17l-.36.77a3,3,0,0,1-.26.48c-.22.32-.39.72-.66,1l-.17.21-.18.24h0l-.06.09a2.52,2.52,0,0,1-.3.37s0,0,0,0l0,0-.5.55c-.2.22-.44.4-.67.62s-.31.28-.47.41l-.9.66-.11.07-.17.1-.43.25s0,0,0,0h0a3.44,3.44,0,0,0-.3.18l-.33.16-.86.4-.3.1-.15,0a8.42,8.42,0,0,1-1.22.36c-.23,0-.46.11-.7.15l-.72.1-.08,0h0l-.64,0h-.1a5,5,0,0,0-.55,0c-.29,0-.58,0-.86,0h-.07l-.45,0-.29,0a9.48,9.48,0,0,1-1.35-.25l-.29-.08L11.78,27h0l-.56-.21h0l-.28-.1a2.08,2.08,0,0,1-.37-.14l-.89-.41a2.86,2.86,0,0,1-.4-.23c-.39-.24-.73-.39-.93-.52S8,25.19,8,25.2s0,0-.1,0-.14-.08-.13-.06,0,0-.18-.1h0s0,.07-.14,0,0,0,0,0-.07,0,0,.11-.11-.06-.11,0,.06.07.05.09-.06,0,.06.09a1.27,1.27,0,0,0,.15.17s0,0,0,0,0,0,0,.09v0s.1.11.3.26l.19.13L8.2,26l.22.14.64.39a6.18,6.18,0,0,0,.7.35,8.45,8.45,0,0,0,1,.44l.08,0,.69.25.71.18.38.1c.45.09.9.15,1.36.22,0,0,0,0,0,0h0l.83,0a10.43,10.43,0,0,0,1.38,0c.16,0,.33,0,.49,0s.63-.08.94-.12l.84-.2.19,0h0l.16,0h0l-.15,0-.1,0-.25.07s0,0,0,0c-.16.06-.37.11-.6.18l-.1,0c-.12,0-.46.09-.67.13l-.1,0h0a2,2,0,0,0-.32,0,1.27,1.27,0,0,1-.25,0,14,14,0,0,1-1.48,0l-.25,0h0l-.26,0h0a4.51,4.51,0,0,1-.58-.06l-.09,0h0l-.25,0-.15,0c-.39,0-.76-.17-1.16-.25-.1,0-.18,0-.18,0h0l-.25,0h-.06c-.11,0-.17-.05-.1,0l-.2-.06L11,27.6l-.25-.09h0s0,0,0,0l-.29-.1-.14-.06a3.33,3.33,0,0,1-.54-.24L9.53,27l-.3-.14c-.22-.11-.41-.25-.63-.36l-.22-.13c-.17-.11-.36-.21-.54-.35l0,0L7.73,26h0c-.28-.22-.58-.43-.87-.67l-.19-.17h0a1.25,1.25,0,0,0-.26-.21s-.13-.08-.14-.07-.12-.06-.29-.18-.1-.07,0,0c-.09,0-.09,0-.07.05s0,0-.06,0-.05,0,0,0l.08.15,0,0h0l0,0s-.06,0-.07,0,.11.14.08.14.16.16.19.21l.32.3a7.42,7.42,0,0,0,.81.67,8,8,0,0,0,.85.6l.21.14.32.19h0a4,4,0,0,0,.42.23l.14.07.94.45,1,.35.15.06a12.91,12.91,0,0,0,1.95.45l.15,0,.1,0h0l.38.06-.12,0,.12,0a14,14,0,0,0,2,.08h.73l.3,0h0l.71-.09a2.28,2.28,0,0,0,.38-.06l.63-.14c-.08,0-.09.06-.09.07s-.17.05-.16.06.07,0,.06,0,0,0,0,0,0,0,0,0h0l-.16.06c-.14,0-.11,0-.09,0l.1,0h0c-.11,0-.23.07-.06,0l.06,0c-.05,0,.1,0,.12,0V29c.15,0,.16,0,.17,0h0s0,0,0,0,0,0,.13,0,0,0,.22,0a3.11,3.11,0,0,0,.39-.11l.26-.1h0s0,0-.09.05c-.22.07,0,0,0,0l.1,0,.9-.3a4,4,0,0,0,.66-.27l.37-.17.09,0a3.64,3.64,0,0,0,.42-.2l.26-.15.15-.09.28-.16c.17-.1.18-.11.08-.06l-.72.42-.14.08h0l-.14.06c.07,0,.16-.07.23-.12l0,0,.74-.42,0,0h0A5.25,5.25,0,0,0,23.3,27l.1-.07.52-.38.22-.16h0l.21-.18.19-.18.09-.08.09-.08c.18-.17.37-.33.55-.5l.5-.55h0l.39-.43c.25-.31.48-.63.72-1a6.22,6.22,0,0,0,.46-.72h0c.05-.07.11-.17.17-.27l.16-.28a2,2,0,0,0,.16-.3h0s0,0,0,0l.4-.83c.23-.45.34-.94.52-1.39h0v0l0-.11a16.81,16.81,0,0,0,.43-1.78h0s0,0,0,0,0,.15,0,.23,0,.16-.06.26a1.31,1.31,0,0,0,.06-.26l.11-.74.06-.4c0-.34,0-.71.08-1v-.29a.7.7,0,0,0,0-.12c0-.09,0-.19,0-.29V14.7l0-.83L29.33,13c0-.16,0-.36-.06-.51l0-.18c0-.19-.09-.37-.14-.55a5.51,5.51,0,0,0-.26-1v0c-.11-.33-.19-.63-.33-1l-.1-.22,0-.06,0,0,0-.06L28,8.85a5.12,5.12,0,0,0-.39-.71l0,0-.11-.19h0l-.08-.16,0-.06,0-.06,0,0s0,0,0,0,0-.14-.06-.23l0,0c-.08-.14,0-.09-.08-.22l0,0c.11.14.09.1.06,0l0,0,0,0-.06-.1v0s0,0,.07.06l-.2-.3c-.14-.19-.27-.38-.42-.57L26.53,6l-.08-.08-.08-.1L26,5.42c-.2-.19-.39-.45-.62-.64l0,0-.17-.15h0l0,0h0A.79.79,0,0,0,25,4.41l-.18-.16L24.54,4a3.89,3.89,0,0,0-.33-.26L24,3.58a4.54,4.54,0,0,0-.51-.36l0,0h0l0,0a3.92,3.92,0,0,0-.71-.46l-.34-.19-.25-.16a1.49,1.49,0,0,0-.38-.18l-.1,0a10.62,10.62,0,0,0-1.34-.59h0l-.45-.16a5.18,5.18,0,0,0-.65-.21l-.47-.12L18.5,1l-.4-.1a3,3,0,0,0-.4-.08h-.06l-.3,0-.23,0h0l-.35,0-.16,0L15.39.61h-.17l-1,0h-.45l-.3,0A12.89,12.89,0,0,0,11.89,1L11.66,1,11.6,1a11.79,11.79,0,0,0-1.42.42l-.06,0-.11,0-.11,0-.22.07h0L8.81,2l-.43.2c-.27.14-.57.33-.85.48l-.14.08c-.13.08-.27.15-.4.25l-.27.2-.65.47a1,1,0,0,0-.21.18h0c-.24.19-.53.47-.8.71A4.49,4.49,0,0,0,4.66,5L4.61,5l-.83.93L3.7,6h0s0,0,0,0l0,0L3,7l0,0a2.14,2.14,0,0,0-.14.21c-.05.08-.09.17-.15.25l-.25.41-.08.16h0l-.15.25h0l-.4.85,0,.06-.18.39,0,0,0,.06s-.06.14-.09.23l-.34,1c-.1.33-.17.67-.25,1l0,.06c-.16.58-.2,1.18-.3,1.76,0,.18,0,.36,0,.54v.12c0,.22,0,.44,0,.65s0,.3,0,.43v.18c0,.27,0,.52,0,.79,0,.49.12,1,.19,1.45a1.69,1.69,0,0,0,.08.36l.16.63a9.68,9.68,0,0,0,.43,1.33l.12.31c0-.06.07.1.08.09h0a1.43,1.43,0,0,0,.1.21s0,0,.14.14a.53.53,0,0,0,.13.15v0h0v0l0,.06v0a1.09,1.09,0,0,0,.07.14s.15.15.24.26,0,0,0,0,0-.07,0,0,.08.11.06,0,0,0,0-.11l0,0c.06.06-.09-.28-.12-.39s-.11-.25-.13-.31l0,0c-.12-.26-.19-.55-.29-.82l0,0c-.08-.27,0-.2,0-.2s.06,0,0-.2l0-.12a.45.45,0,0,1,0-.12l0-.16c0-.17-.08-.38-.13-.57a5.73,5.73,0,0,1-.18-.93,6.38,6.38,0,0,1-.12-.76,2.33,2.33,0,0,1,0-.42,1.43,1.43,0,0,0,0-.23l0-.85c0-.34,0-.68,0-1,0-.11,0-.21,0-.32,0-.3.08-.6.12-.91l0-.13v-.07l0-.26c0-.08,0-.15,0-.23l0-.1,0-.07.22-.88a3.57,3.57,0,0,1,.14-.43v0h0l0,0V11s0,.1,0,.19,0,.14,0,.14,0-.07,0,.1-.15.63-.23,1-.12.77-.17,1.14h0a5,5,0,0,0-.07.66c0,.34,0,.7,0,1v.15c0,.08,0,.16,0,.22h0s0,.08,0,.05v.08h0c0,.07,0,.1,0,.14v0a1,1,0,0,0,.07.28.52.52,0,0,0,.05.18.43.43,0,0,1,0,.15c0,.17,0,.07,0,.12s0,0,0,.08a.67.67,0,0,1,0,.11s0,0,0,0h0c0,.14,0,.15.05.15s0,0,0,.06v.1c0,.09,0,0,0,0h0a1.32,1.32,0,0,0,.05.2s0,0,0,0v0h0c0,.09,0,.11,0,0s0,0,0,0,0,.14,0,.15.12.35.16.36a.46.46,0,0,0,.07.14.35.35,0,0,1,0,.11c0,.1,0,0,0,0h0s0-.07,0,0,0,0,0-.11h0s0,0,0-.06v0c0-.06,0,0,0,.1s.06.14.05,0v0h0a.46.46,0,0,0,.08.17l0,.11a.87.87,0,0,0,.09.15s0,0,.07.14l0,.09c0,.07,0,0,0,.05v0l.17.47,0,.09c.05.16.1.32.17.49s.11.28.17.42a11.73,11.73,0,0,0,.59,1.22c.08.12.15.26.14.2s0,0,.12.14a.84.84,0,0,0,.27.27l.1.09c.09.1.18.18.13.07h0l.06.07s0,0,.08.07l.19.25c.15.2.28.4.44.58l.65.7Zm2,1.18h0Zm5.07,3.34Zm3.72,0h0Zm7.1-2.47h0Zm-3-22,0,0,0,0Zm1.67,1.11h0ZM11.7,27.61h0Zm4.87.46Zm5.19-.21h0ZM24,26.46h0ZM25.3,4.75h0l0,0ZM23.14,3.05h0l-.06,0ZM13.51,27.39ZM27.44,22.5h0ZM1.91,17.4ZM26.25,21l0,.05V21ZM10.09,27.31h0Zm1.82,1.08h0Zm1.64.25Zm7.14-.28h0ZM2,21Zm8.16,6.28h0Zm18.68-8v0ZM17.67,1h0ZM1.12,17.12h0ZM9.89,27.31h0ZM8,26.29H8S8,26.28,8,26.29Zm-1.39-1v0Zm3.22,2.23h0ZM7.27,26h0Zm2.14,1.19h0Zm.91.48Zm-.4,0Zm-.3-.11h0ZM9.18,27h0Zm1.6.72h0Zm6.45.88ZM23.58,3.49l0,0,0,0ZM13.48.85ZM11,1.29ZM.94,14.73h0a.08.08,0,0,1,0,0Zm.54-.85h0v0h0v0ZM9.74,4.06h0ZM25.91,8.65l0,0,0,.06Zm.17.12h0ZM12,28.21h0Zm2.66.38h0Zm-.32,0h0ZM29.12,13.13Zm-17.62-12h0Zm5,27.36h0ZM26.69,6.84h0ZM20.6,2ZM.81,18.05h0ZM6.41,6.54h0ZM7.1,3.29h0ZM4.79,5.05h0l0,0ZM1.23,11.17h0Zm1.68,7.29v0A.07.07,0,0,0,2.91,18.46ZM20.6,3.58h0Zm5.55,5h0ZM22.39,27.2h0Zm4.22-4v0h0ZM2.12,8.81h0ZM8.78,4.52h0ZM24,4l0,0h0ZM2.7,8Zm-.93,5.22h0ZM22.66,4.87l0,0-.08,0h0Zm5.26,11.79h0ZM20.27,26.72h0Zm.17,1.47h0Zm8.27-16.3h0v0h0S28.7,11.86,28.71,11.89Zm-27.2-1.3ZM12.12,1.2h0ZM22.36,25.91h0Zm-1.58.71h0ZM7.12,3.44h0l0,0ZM2.54,8.57l0,0h0Zm-.47.87h0ZM22,2.87h0l0,0ZM11.1,3.09h0Zm16,6.84h0l0,.05Zm1,5.65h0ZM21.45,27.32Zm6.28-18h0l0-.07ZM19.87,2.09l-.08,0ZM3.32,7.32l0,0,0,0Zm1.59.5h0Zm23.42,7v0ZM21.88,26.67l-.06,0,.06,0ZM24,5.67h0Zm3.33,14.51h0Zm.23-.34h0Zm-.19,1Zm-2.93,3.91,0,0,0,0h0l0,0h0Zm0,.2h0Zm-.63.44,0,0,0,0Zm2.27-2.18h0Zm-.41.59h0Zm3-8.21h0v0ZM17.37,1.43h0Zm9.74,7.22h0Zm-.48-.49h0Zm.24.14h0v0Zm1.71,4.41Zm0,2.57h0ZM26.8,8.45h0Zm0,0h0Zm.89,1.13,0-.09,0,.1ZM28,12h0ZM27.3,9.71h0s0,0,0,0ZM26.8,8.6l-.07-.13,0,0ZM14.54,2.21h0Zm7.21,1.14h0Zm-1.63-.94-.05,0h0ZM6.86,4Zm16.37.47,0,0Zm.82.52h0Zm.16.19,0,0v0Zm-.75-.64.07.06h0Zm-1-1h0Zm.41.11h0Zm1.67,1.66h0ZM6.16,4.75h0S6.17,4.75,6.16,4.75ZM4.61,6.45v0h0ZM7.33,5h0ZM4.39,7.54ZM5.6,6h0Zm.63-.33ZM7,4H7Zm-.1.14h0Zm-2.22,3v0Zm1.94-2h0l0,0,0,0Zm9.73-3.48h0ZM14,1.67h0Zm.66.08h0Zm-.7.06h0Zm-2.33.38h0Zm-.1,0h0ZM6.45,5h0l0,0,0,0ZM9.23,3.11h0Zm.86-.45h0ZM8.8,3.19h0Zm.39-.14h0Zm0-.13ZM7.32,4.49h0Zm.11.11h0Zm-1,.29h0ZM7.7,3.69h0ZM11.44,2ZM13,1.84h0Zm4.65.08h0ZM4.72,6.86h0ZM5.43,6h0Zm.15-.39h0ZM6,5.28l.05,0-.07.06Zm.74-.7ZM17.51,1.85h0Zm-5.21.42h0ZM11,2.53h0Zm-3.32,2-.1.08,0,0,0,0ZM5.35,6.37l-.08.09ZM4.79,7.45l0,0h0Zm1.59-2.8h0Zm.7-.57h0ZM18.2,1.84h0ZM16.45,2h0ZM6.32,4.64h0ZM15.4,1.54h0ZM10.48,2.77h0Zm-4.7,3.1Zm-.15.2,0,0ZM3.48,8.88h0Zm.74-1.55v0ZM10.67,2Zm3.95-.57h0Zm5.21,1.24h0Zm-2-.5h0Zm-.7,0h0ZM7.6,4.76h0Zm-.17.14h0ZM3.94,8.59Zm-.07-.23h0ZM4.4,6.58h0ZM11,1.86l.06,0H11Zm.66-.2h0ZM23.45,4h0Zm.35.91h0Zm-.5-.33ZM23,4.43h0ZM17.86,2.18ZM8.81,3.85l0,0ZM4.53,8l0,0ZM4,7.58H4v0S4,7.58,4,7.58Zm0-.2,0,0h0l0,0Zm.1-.26h0l0,0h0l0,0ZM24.5,5.65h0ZM23.18,4.56h0Zm-.73-.46h0ZM15,2.18h0Zm-.79,0h0ZM10.61,3l0,0h0ZM7.77,4.87h0ZM6,6.3l0,.05,0,0ZM3.26,9.68h0Zm0-.67h0Zm2.17-3.6h0Zm5.92-2.59ZM7.58,5h0ZM4.83,7.75l0,0h0ZM2.67,11h0a.08.08,0,0,0,0,0A.07.07,0,0,1,2.67,11Zm1.8-5h0ZM6.07,4.6h0ZM9.73,2.09Zm5.75-.7h0Zm9.35,4.24Zm.22.41h0Zm1.87,1.89h0Zm1.39,9.36Zm-.07-2v0h0ZM2.53,11.61a.59.59,0,0,1,0-.07A.51.51,0,0,0,2.53,11.61Zm0,.5h0Zm-.08.29,0,.09h0A.7.7,0,0,1,2.44,12.4Zm1.3-5h0v0h0ZM5.28,5.33h0ZM6.81,3.86l.07,0h0ZM9.68,2.14h0Zm1.06-.31h0Zm17.3,9v0h0ZM28.69,13h0Zm-.09,3.51v0a.38.38,0,0,1,0,.07A.78.78,0,0,0,28.6,16.54Zm-.09,1.18Zm-2.79,6.23h0ZM28,17.42v0Zm.05-5h0v0h0ZM26.43,8.28h0ZM25.37,6.67h0ZM20.94,3.2h0Zm-2.39-.7h0Zm-8.94.87h0ZM3.73,7.89h0ZM6.67,4h0ZM9,2.43H9Zm13.62.83h0Zm3.36,3.65h0Zm1,15.38h0Zm-3.82,3.95Zm-.94.79ZM11.36,3h0ZM2.13,13.63h0v0ZM2.9,9.51h0ZM3.66,8h0Zm-.22-.35v0ZM7.8,3.24h0ZM9.49,2.1Zm1.41-.46h0Zm2.85-.34h0ZM21.4,2.6h0Zm3.54,2.74h0Zm.95.9h0Zm1.48,14.93,0,.06v-.06Zm-.72,1.48h0Zm-1.34,1.81h0Zm-.22.36,0,0Zm-1.77,1.29h0Zm4.94-11.56h0Zm-.47-2.92h0v0Zm-.16-.45h0Zm-1-2.51h0Zm-1.75-2.3-.05,0ZM24.33,6h0ZM17.88,2.53h0Zm-5.22.19h0Zm-.09.05h0Zm-1.19.28h0ZM7.88,5h0ZM4.43,8.58ZM2,13.06H2ZM3.2,7.86v0h0Zm4.12-4.4h0ZM10.1,1.84h0Zm1.09-.31h0Zm6-.23h0ZM28.8,16.37h0v0S28.8,16.34,28.8,16.37Zm-.7,3.69Zm-.72,1.44h0Zm-1.74,2.75h0Zm-3.9,3.06h0ZM22,26.15h0Zm5.92-7.75Zm.19-3h0ZM21.29,3.51h0ZM7.78,5.13ZM5.65,6.88h0ZM2,15.77s0,0,0,0Zm2.56-10h0ZM26,6.29h0l0,0Zm.72,1.23h0ZM29,16.06v0Zm-.12.06v0A.18.18,0,0,1,28.84,16.12Zm-.11,1.62ZM26.83,9.17h0ZM26.77,9h0ZM9.66,3.91h0ZM5,7.91v0ZM2,12.1H2v0Zm.76-2.42h0v0Zm-.47-.43h0Zm.06-.52,0,0v0ZM8.26,2.78h0Zm3.17-1.43h0Zm2.81-.19h0ZM22,2.77h0Zm4,3.52h0Zm-5,21.39h0ZM22.17,26h0Zm4.05-4.2h0ZM11.16,3.27l-.08,0h0l.07,0ZM3,11.69Zm-.64-.81v0l0,.05S2.36,10.88,2.35,10.88ZM2.9,8.63l0,0h0ZM4.36,5.77l0,0ZM7.61,3h0ZM13,1.13h0ZM13.5,1ZM15.64.9h0Zm4.37,1h0Zm7.35,6.34,0,.06Zm1.73,7.34ZM22.21,27.21h0Zm-1.28-.31h0Zm1.95-1.38Zm2.8-2.69Zm2.25-7.39h0ZM23.78,5.75h0ZM8.18,5.07h0Zm-2,1.47ZM3.86,9.9Zm-1.5.76v0h0ZM2.79,8.5h0ZM1.45,10.75h0ZM5.58,4.45h0Zm.33-.29Zm1.46-.87,0,0Zm.54-.45h0Zm1.34-.69h0Zm1.23-.52h0ZM15.23.85,15,.89h0Zm4.43,1h0Zm6.59,4.76h0ZM29,13.33v0h0Zm.05.06h0ZM28.79,18h0Zm-1.07,3.3h0l0,0,0,0Zm-3.1,4.17Zm-.58.37h0l0,0h0Zm-1.76,1.36h0Zm-1.52.84h0Zm-.67-1.26Zm.2-.05Zm7-7.39v0h0ZM25.88,7.85a.14.14,0,0,1,0,0Zm-2-2h0Zm-.43-.22h0ZM12.66,2.92h0ZM6.31,6.49l0,0ZM2.5,16h0Zm-.06.22v-.06a0,0,0,0,0,0,0Zm-.3.08v0Zm.38-6.48h0Zm-.24-.54Zm-.64,1.18h0Zm-.5,1.3h0ZM2.27,8.6l0-.07ZM4.52,5.49Zm2-1.83h0ZM13.15,1h0Zm5.56.51h0Zm.79.22h0Zm3.38,1.33h0s0,0-.08-.06Zm2.38,2.05,0,0Zm4,11.31h0ZM21,28h0s0,0,0,0Zm-.83-.75Zm2.47-1.65h0Zm1.54-1.33Zm3.42-5.66h0ZM28,14.4h0Zm0-.15h0Zm-4.88-9h0ZM16.19,2.82h0ZM6.09,6.6l0,0ZM1,16.68v0Zm2.8-10.5h0ZM5.42,4.49h0ZM9,2.19H9ZM14.36.78s0,0,0,0h0Zm4.48.64h0Zm10.08,11h0ZM29,17.2h0Zm-.41,1.66h0v0h0Zm-.77,2.3v0h0Zm-.13.56Zm-.25.33h0Zm-4.63,4.81h0Zm-2.75.49h0Zm7.79-11.8h0Zm-.12-2.86h0ZM25.93,8.25h0ZM21.75,4.2h0Zm-.21-.13h0ZM16.59,2.85h0Zm-4.95.44h0ZM2.56,14.83v0h0Zm0-.3ZM2.47,15.6h0Zm-.67.61h0Zm-.22-3.13h0Zm-.49-.85h0Zm-.1,1v0a.12.12,0,0,1,0,0ZM.92,16h0Zm.42,2.85h0ZM1,18.67l0,.07s0,0,0,0Zm-.13-.22ZM4.07,5.78h0Zm3-2.47h0ZM7,3.3H7Zm2-1.17h0Zm2.64-1h0Zm6.87.13h0Zm9.61,8.38ZM19.56,28.56Zm.49-.37h0Zm-.14-1.42h0Zm6.61-5.94v0h0ZM18.21,3h0Zm-.56.08h0Zm-14,7.57h0Zm-.93,5.75h0v0ZM4.05,21.3v0ZM1.27,18.59ZM.64,13.75v0a.07.07,0,0,0,0,0Zm.53-2.4h0v0ZM4.42,5.49h0Zm.1-.16ZM11.1,1.28h0ZM12.61,1h0Zm6.81.56.14,0a.37.37,0,0,1-.14,0Zm4,1.84h0Zm3,3ZM29,11.81h0Zm-.25,6.9h0Zm-3.38,6.23ZM20,28.52h0Zm-.11-.38s0,0,0,0h0ZM19.14,28l.05,0Zm.74-.65h0Zm6-5.56Zm1.16-2v0l0,.08h0Zm0-.09v0l0,0Zm.4-1.16Zm.17-.86ZM26.16,8.77h0ZM23.94,6h0ZM22.32,4.76h0Zm-7.63-2h0ZM1.17,19.33v0h0S1.17,19.33,1.17,19.33ZM7,3.24H7ZM13.77.76h0Zm4.83.43h0Zm7.35,4.4h0Zm.63.85h0Zm1.73,14h0ZM14.43,28.63h0Zm-1.05-.27h0Zm.1.07h0Zm5.66-.61h0ZM9.36,26.3h0Zm2.09.92Zm4.5.64h0Zm.26,0h0Zm.6,0h0Zm-.91.12Zm-4.08-.47h0Zm3.76.31h0Zm-.38,0h0Zm-7-1.93,0,0,0,0h0Zm.09,0h0Zm.18,0Zm2.85,1.06h0ZM20.1,3.6l0,0ZM7.88,5.43h0ZM2.25,16.92ZM1.8,17h0Zm-.32-3h0Zm-.17-2.2h0Zm.1,7.57v0l0-.06ZM5.94,4h0Zm1-.71h0ZM16.09.73h0ZM22.83,3Zm6.27,14.82ZM19.2,28.68h0ZM8.42,26.53h0s0,0,0,0Zm9.78,1.56h0ZM9.46,26.23h0ZM13,27.33h0Zm14.66-11a.14.14,0,0,1,0-.06h0A.5.5,0,0,1,27.67,16.3Zm.15-1.84v0ZM14.61,2.84h0ZM2.84,13.46v0h0A.12.12,0,0,0,2.84,13.46ZM3,17.18H3Zm1.16,3.94v0ZM3.3,20v0ZM2.24,17.5ZM.75,12.63h0Zm.37-1.56h0ZM3,7,3,7H3ZM7.8,2.66h0ZM11,1.25l-.06,0h0ZM17.63.9h0Zm3.94,1.34h0ZM25.48,5h0Zm2.16,3.22h0Zm.71,1.46h0Zm.24.7h0Zm-6.2,17h0Zm-5.12,1.27h0Zm-1.14.06h0Zm-2.56-.12h0Zm-4-1.15h0Zm6.94.79h0Zm2.4-.48.08,0H18.9Zm-.06-.07h0ZM10,26.89h0ZM8,25.6H8Zm4.64,1.7h0Zm4.87.06h0Zm0,.07h0Zm.31-.13,0,0h0Zm2.33-.76h0Zm7.49-11.17s0,0,0,0v0S27.69,15.33,27.69,15.36Zm-4.35-9.6h0ZM4.87,22.53h0l0,0h0ZM1.63,11.42h0v0S1.64,11.41,1.63,11.42Zm-.47,2.13v0a.19.19,0,0,1,0,0Zm0,0h0ZM9.71,1.67h0Zm1.5-.51h0s0,0,0,0h0Zm3-.48h0ZM25.81,5.42h0ZM27,6.8h0Zm1.23,2.66h0Zm.56,9.87ZM24.33,26h0ZM22.7,27.28ZM20.6,28.42h0Zm-2.85.21Zm-2.19.18h0ZM16.78,28h0Zm-9.2-2.79h0l.06,0h0ZM10,26.39h0Zm1.21.48h0l-.09,0h0Zm16.2-9.54h0Zm.22-1.69h0ZM17.17,3.19h0ZM5.81,7.34v0h0ZM1.9,17.4v0Zm-.19,2.44h0v0Zm.16.57h0Zm-.12.48v0h0ZM4.31,5.38l0,0h0Zm.91-.92h0ZM7.06,3h0ZM15.65.65h0ZM27.82,8.51Zm1.45,9v0h0Zm-3.22,7h0Zm-7.27,4.08h0Zm-1.8.24h0ZM8.84,27.2h0Zm8.78.88h0Zm-4.79-.22h0ZM9.65,26.76l-.06,0ZM8.34,25.47l.1.07h0Zm.81.42h0Zm0,0h0Zm5.62,1.6h0Zm.43.06h0Zm4.49-.84h0Zm.47-.2h0Zm6.24-5.9v0h0Zm1.09-7.24ZM24.16,6.53h0ZM21.21,4.18h0Zm-3.89-.94h0ZM7.35,6ZM5.87,7.4h0ZM3.79,10.64h0Zm-.61,1.84h0Zm-.31,3.38v0h0Zm-.39,2.32h0ZM2.43,18ZM1.9,10.79h0Zm-.64,2.46h0c0,.06,0,.12,0,.17s0,0,0,0ZM2,21.19H2v0ZM8.13,2.39h0Zm17,2.19h0Zm-6,24.31h0Zm-5.83-.18h0ZM6,25.06H6v0H6Zm4,1.93h0Zm14.55-3.76h0Zm.43-.51h0l0,0h0Zm2.56-8.36h0ZM19.21,3.61h0Zm-.94-.22h0ZM6,7.24H6l0-.05Zm-2.5,4.35s0,0,0,0ZM3.1,17.82ZM5,22.53v0Zm-3.86-8.6h0ZM.78,18.54h0ZM.46,14.4h0Zm.24-2h0Zm.84-2.7,0,.12ZM27.27,7.08h0Zm0,.27h0v0Zm2.15,9.29h0v0Zm-3.52,8h0Zm-7.51,3.88h0l.05,0h0ZM8.3,26.34Zm3.59.68ZM27.34,12.55ZM25.55,8.31l0,0h0Zm-10-5.24h0ZM3.66,11.16ZM4.23,21Z"></path><path class="cls-1" d="M24.37,26.16l.14-.12-.13.13-.12.11,0,0,.14-.13Z"></path><path class="cls-1" d="M26,14.56s0,.07,0,.1a1.18,1.18,0,0,0,0,.2l0,.13v0c0,.07,0,.14,0,.21h0c0,.05,0,.11,0,0s0,0,0,.09a2.24,2.24,0,0,1,0,.3,1.34,1.34,0,0,1-.06.24v0c0,.09-.06.28-.07.25v0h0s0,0,0,0,0,.08-.06.16h0s0,0,0,.23h0l-.14.51c0,.12-.06.19-.09.31l0,.12a2.39,2.39,0,0,1-.1.31c0,.07-.06.16-.08.23a4.74,4.74,0,0,1-.27.69l-.17.35h0c0,.06-.08.16-.13.25l-.17.28a8.42,8.42,0,0,1-.67,1,7.25,7.25,0,0,1-.72.83c-.15.17-.33.33-.51.5h0a6.26,6.26,0,0,1-.71.59l-.28.2-.13.09L21,23l-.17.1-.15.09,0,0h0a3.9,3.9,0,0,1-.34.19h0l-.45.21-.14.07h0l0,0a6.53,6.53,0,0,1-.68.25h0l-.05,0-.18.07-.07,0c-.18.06-.34.08-.51.12h0l-.12,0a6.29,6.29,0,0,1-.93.17H17l-.1,0-.15,0-.47,0-.45,0h-.08a2.3,2.3,0,0,1-.43,0H15a6,6,0,0,1-.88-.13,6.05,6.05,0,0,1-.93-.21h0L13,24h-.08c-.26,0-.32-.07-.22,0L12.51,24l-.11,0h0a5.91,5.91,0,0,1-.71-.29l-.71-.35-.68-.43a2.32,2.32,0,0,1-.29-.22l-.06,0-.05,0-.08-.05-.09-.06-.23-.17-.18-.16,0,0-.17-.16a.58.58,0,0,0-.13-.11h0a2,2,0,0,1-.15-.15l-.08-.07c-.09-.09-.2-.22-.31-.33l-.16-.17A3.43,3.43,0,0,1,8,20.79l-.12-.17-.14-.18-.11-.17a.79.79,0,0,0-.12-.15l0,0,0,0c-.11-.17-.19-.32-.28-.48l-.06-.09c-.07-.13-.14-.22-.19-.31a1.26,1.26,0,0,1-.07-.14s-.08-.09-.08-.05,0,0,0-.06-.08-.14-.07-.1h0l0-.07s0,0,0,0,0,0,0,0l0,0,0,.07s0,0,0,0,0,0,0,0,0,0-.1-.15a1.11,1.11,0,0,1-.09-.17s0,0,0,0h0l-.07-.16a2.05,2.05,0,0,1-.07-.23h0v0a.39.39,0,0,0,0-.12.82.82,0,0,1-.06-.14.94.94,0,0,0-.06-.17h0c0-.08-.06-.16-.08-.23l0-.16c-.06-.25-.1-.46-.17-.72a1.19,1.19,0,0,1-.05-.28v0a1.78,1.78,0,0,1,0-.36v-.08a1.64,1.64,0,0,1-.05-.39c0-.28,0-.56,0-.83v-.08c0-.26,0-.51,0-.78h0s0-.08,0-.11h0a2.33,2.33,0,0,1,.07-.53h0c0-.06,0-.12,0-.17a1.43,1.43,0,0,1,0-.19,1.91,1.91,0,0,0,0-.26c0-.08.05-.23.08-.34l0,0a1.55,1.55,0,0,0,.05-.19h0a3.52,3.52,0,0,1,.17-.59l.1-.26,0-.11,0,0c0-.07.06-.14.08-.23a1.47,1.47,0,0,1,.06-.14l.11-.23c.11-.23.22-.46.34-.67l.24-.4,0,0c.06-.08.12-.19.18-.3l.14-.18.1-.13.34-.44L8,8H8l.18-.18a5.05,5.05,0,0,1,.68-.69L9.08,7l.14-.13c.18-.14.38-.29.57-.43a5.86,5.86,0,0,1,.72-.46h0c.15-.08.3-.19.46-.26l.75-.35.14,0L12.54,5A3.4,3.4,0,0,1,13,4.9c.31,0,.64-.19,1-.21l.22,0,.25,0h.08a1.67,1.67,0,0,1,.39,0h.05l.6,0c.24,0,.49,0,.74,0s.34,0,.51,0l.9.14.1,0,.15,0,.39.1s0,0,0,0h0c.07,0,.19,0,.27.07l.28.1.72.27.23.11.12.06a6.18,6.18,0,0,1,.9.49c.16.1.33.2.49.31l.48.36.05,0h0l.39.34.06.05a3.23,3.23,0,0,0,.33.31c.18.15.32.34.48.51l0,0,.24.27.14.19a7.89,7.89,0,0,1,.63.92,1.41,1.41,0,0,0,.12.2l.12.21v0l.2.44h0c0,.08.07.14.1.22a1.5,1.5,0,0,1,.13.29l.28.75a2.59,2.59,0,0,1,.09.36c.08.36.19.64.23.83s.06.28.08.28,0,0,0,.08,0,.13,0,.11,0,0,0,.16h0s0,0,.07.1,0,0,0,0,.06,0,.07,0,0,.1,0,.09,0-.08,0-.08,0,0,0-.09a.9.9,0,0,0,0-.18s0,0,0,0,0,0,0-.06h0s0-.13,0-.32l0-.18a1,1,0,0,0,0-.13l-.06-.2c0-.2-.09-.4-.14-.59a5.12,5.12,0,0,0-.2-.6,6,6,0,0,0-.33-.84l0-.06-.25-.55-.31-.51-.16-.27c-.21-.31-.43-.61-.66-.91h0l-.45-.51a9.68,9.68,0,0,0-.81-.78,3.94,3.94,0,0,0-.31-.26c-.18-.15-.41-.32-.61-.47L21,5.49l-.14-.08s0,0,0,0h0l-.1-.07h0l.11.07.07,0,.19.1s0,0,0,0l.45.25.07,0c.09,0,.31.22.46.31l.07,0h0l0,0,.22.16c.08,0,.1.09.16.14a10.49,10.49,0,0,1,.87.83l.14.16,0,0,.14.17,0,0a3.61,3.61,0,0,1,.3.37l0,.06s0,0,0,0l.13.17.07.1a9.16,9.16,0,0,1,.52.82c0,.07.08.13.09.12l0,.05v0l-.05-.07.11.17h0v0c0,.08.06.12,0,.07a1.27,1.27,0,0,1,.08.15l.07.15.09.19h0s0,0,0,0l.11.22s0,.11.05.11a3.9,3.9,0,0,1,.18.45l0,.12.09.26c.06.19.1.38.16.57l.05.2c0,.16.09.33.1.51v.12h0c0,.29.09.58.12.89,0,.06,0,.14,0,.21h0a1.07,1.07,0,0,0,0,.27s0,.12,0,.12,0,.1.06.27,0,.11,0,0c0,.08,0,.06.07,0s0,0,0,0,0,.05,0,0l0-.13v0h0v0s0,0,0,0,0-.14,0-.13,0-.18,0-.23,0-.24,0-.35a5.63,5.63,0,0,0-.08-.85,6.55,6.55,0,0,0-.14-.84l0-.2-.08-.3h0a3.07,3.07,0,0,0-.11-.38.57.57,0,0,0,0-.12l-.28-.8-.36-.76a.91.91,0,0,0,0-.12A11,11,0,0,0,24.6,8a.46.46,0,0,1-.07-.1l0-.07h0l-.19-.25.06.08-.06-.08A11,11,0,0,0,23.2,6.41L23,6.22l0,0L22.77,6l-.2-.15h0l-.46-.35a1.45,1.45,0,0,0-.25-.18L21.4,5c.07,0,.08,0,.09,0s.13.06.12.06,0-.05,0-.06,0,0,0,0,0,0,0,0h0l.13.06c.1.06.08,0,.07,0l0-.06h0c.08,0,.17.09.06,0l0,0s-.05-.06-.07-.08l0,0c-.1-.07-.1-.08-.1-.09h0s0,0,0,0,0,0-.05-.1,0,0-.14-.11a2.33,2.33,0,0,0-.28-.17L21,4.33h0l.08,0c.16.08,0,0,0,0l-.08,0L20.36,4a4.31,4.31,0,0,0-.53-.22l-.31-.11-.08,0a3.08,3.08,0,0,0-.35-.13l-.23-.06-.13,0-.25-.07c-.16,0-.17,0-.08,0l.65.18.12,0h0l.12,0-.2-.07h0l-.67-.18h-.05a2.93,2.93,0,0,0-.57-.13l-.1,0-.52-.08-.22,0h0l-.23,0h-.4l-.6,0-.6,0h0L14.6,3c-.32,0-.64.09-1,.14a6,6,0,0,0-.68.14h0l-.25.06-.25.06a2.07,2.07,0,0,0-.27.08h0s0,0,0,0l-.71.25c-.39.13-.73.34-1.1.5h0l-.09,0c-.43.25-.87.49-1.27.78H9s0,0,0,0L9.15,5l.18-.12L9.15,5l-.49.36-.26.2c-.22.17-.43.38-.64.55l-.17.16-.07.06-.16.17-.16.17,0,0-.45.51-.41.55L6,8.06,6,8.18l-.24.39a4.73,4.73,0,0,0-.4.71l0,0c-.12.26-.25.47-.37.75l-.07.19,0,0,0,0,0,0-.18.49a4.73,4.73,0,0,0-.18.63l0,0,0,.18h0l0,.14,0,0V12l0,0s0,0,0,0-.06.1-.1.17h0c0,.13,0,.06-.08.18v0c0-.16,0-.11,0-.06v0l0,.09h0c0-.06,0,0,0-.08s0,.16-.06.28-.06.38-.09.57,0,.18,0,.28v.19c0,.17,0,.31,0,.47s0,.48,0,.73V15h0v0h0a.47.47,0,0,0,0,.15v.19c0,.08,0,.19,0,.27s0,.23,0,.34l0,.26a4.76,4.76,0,0,0,.09.5v0H4v0a3.16,3.16,0,0,0,.15.67l.08.3.05.23a1.23,1.23,0,0,0,.11.32l0,.09a9.75,9.75,0,0,0,.43,1.11h0l.16.35a3.76,3.76,0,0,0,.25.5l.2.34c0,.06.08.13.11.16l.17.29c.05.1.13.18.19.28s0,0,0,0l0,0,.15.2a1.17,1.17,0,0,0,.11.15h0l.17.23.08.1.65.74.09.1.57.54.13.12.14.12.19.15a9.86,9.86,0,0,0,1.09.78l.16.1,0,0a8.86,8.86,0,0,0,1.06.57l0,0,.09,0,.08,0,.18.09h0l.72.27.36.13c.24.08.52.14.77.21l.13,0,.37.09.27,0,.65.11a.73.73,0,0,0,.22,0h0c.25,0,.57,0,.87.05a2.8,2.8,0,0,0,.43,0h.06l1,0H17s0,0,0,0h0l1-.14h0l.2,0,.23-.06.37-.09.14,0h0l.23-.06h0l.73-.26,0,0,.32-.11,0,0,0,0,.19-.08.76-.36c.25-.13.48-.28.72-.43l0,0a13.85,13.85,0,0,0,1.18-.84c.12-.09.21-.2.33-.3l.07-.06.39-.35.25-.25,0,0,.07-.07.43-.48c.26-.3.49-.63.73-.94a1.68,1.68,0,0,0,.16-.25l.28-.46a8.2,8.2,0,0,0,.52-1l.11-.25s0-.1,0-.1h0a.65.65,0,0,0,.06-.18s0,0,0-.16a.42.42,0,0,0,0-.16h0l0-.05v0a.72.72,0,0,0,0-.13s0-.17,0-.29,0,0,0,0,0,0,0,0,0-.11,0-.05,0,0-.06.06l0,0c0-.07-.11.21-.16.29s-.08.21-.1.25v0c-.08.22-.2.43-.3.64l0,0c-.1.2-.09.14-.1.13s0,0-.12.11l-.05.1-.05.08-.07.11-.25.4a4.25,4.25,0,0,1-.44.64,5.33,5.33,0,0,1-.36.51,2.27,2.27,0,0,1-.22.26l-.13.14-.47.51-.61.55-.19.18c-.18.16-.39.3-.58.45l-.09.06,0,0-.17.13-.16.1-.07,0-.05,0-.63.38a3.3,3.3,0,0,1-.33.17l0,0h0l0,0,.06-.06.13-.08c.11-.07.09-.08.08-.09s-.06,0,.05,0,.45-.28.68-.43a8.61,8.61,0,0,0,.75-.55h0a3.88,3.88,0,0,0,.42-.34l.6-.58,0,0,.05-.06.12-.14h0s0,0,0,0l0,0h0l.07-.09,0,0a.79.79,0,0,0,.12-.19.4.4,0,0,0,.07-.14.36.36,0,0,1,.07-.1c.08-.11,0-.06.05-.1s0,0,0-.06l0-.08s0,0,0,0h0c.06-.1.06-.11.06-.12s0,0,0-.06l0-.06c0-.07,0,0,0,0h0a1.08,1.08,0,0,0,.09-.14s0,0,0,0h0c0-.06,0-.08,0,0l0,0c.07-.1.06-.1.07-.12s.13-.26.11-.3a.37.37,0,0,0,0-.12.34.34,0,0,1,0-.09c0-.08,0,0,0-.05h0s0,0,0,0,0,0-.06.06h0s0,0-.05,0l0,0s0,0,0-.07,0-.12,0-.06l0,0h0a.34.34,0,0,0,.05-.14l0-.09a.48.48,0,0,0,0-.13s0,0,0-.12l0-.07c0-.06,0,0,0-.06v0l.18-.37,0-.07c.06-.12.13-.24.19-.38s.1-.23.14-.34a9.64,9.64,0,0,0,.36-1c0-.12.06-.24,0-.2s0,0,0-.14a.63.63,0,0,0,0-.31.3.3,0,0,1,0-.11c0-.11,0-.21,0-.11h0s0,0,0-.08,0,0,0-.09l0-.26c0-.19.07-.39.08-.59s0-.51,0-.78C26,14.68,26,14.62,26,14.56Zm-.5-1.84s0,0,0,0h0Zm-1-4.84ZM22.39,5.71h0Zm-5.5-2.66ZM6,17.48v0Zm-.33-1.6h0ZM24.81,9.49ZM22.27,6.41Zm-3.1-2.85h0Zm-2.06-.46h0ZM3.85,14.81h0v0ZM4.12,17h0v0ZM23.65,8.57ZM12.83,3.37h0ZM24.58,21h0ZM12.67,4.91h0Zm12.91,5.67h0Zm-.43-1.67v0Zm-.8-1.08ZM20.08,3.89h0Zm6.57,15h0Zm-1.08-8.3h0ZM10.23,4.42h0ZM6.11,21.33h0v0Zm18.76.26h0Zm.82-10.9h0Zm.52,1.7s0,0,0,0h0Zm.21,1.39h0Zm-.57-3.14h0ZM26.42,13h0Zm-.55-1.93Zm-.25-.8h0Zm.21.26h0Zm.11.24Zm0,.51Zm-.51-1.34v0h0ZM22.21,5.72ZM4.12,16.52v0Zm4.29,7.33ZM10.09,25Zm13.51-2h0v0Zm-.8.18h0v0h0l0,0,0,0Zm-10.4.9ZM5.75,12.21l0,0,0-.06Zm0-.17ZM25,8.95V9l0,0h0ZM23.66,7.21h0Zm.21.15,0,0,0,0ZM6.48,7.79h0Zm3.24,17ZM22.59,6.21h0ZM4.26,12.8h0Zm.7,6.3H5Zm20.62,2.13Zm-9.84,3.4h0Zm-2.26,1.47h0Zm2.34.31h0ZM21.39,25h0Zm3.22-5.16v0h0ZM5.89,18.18h0v0h0Zm-.31-6.07ZM18.43,3.58h0Zm-4.73-.13h0ZM19.52,25.8h0Zm-6.29-1.36h0ZM4.13,16v0h0A.17.17,0,0,1,4.13,16Zm14.61,9.93Zm3.54-2.47h0ZM5.45,16.26v0a.55.55,0,0,0,0,.08h0Zm3.76-9.8h0ZM19.38,5.07h0Zm.75-.94h0ZM6,8.74H6l0,0H6ZM20.89,25.13Zm-11.5-.71h0ZM17.72,4.34h0ZM19,4.83h0ZM13.56,26h0S13.56,26,13.56,26Zm5.58-.32h0Zm.77-.23h0ZM4.65,17.76h0v0Zm6.42,6.17h0ZM5.79,10.78h0l0,0ZM8.48,7h0ZM19,4Zm-14,6.73h0l0,.05Zm.35,8.68,0,.06ZM18,26h0Zm-.63-1.2h0ZM7.89,7.3h0ZM18.42,4.18h0ZM5.11,15h0ZM11.54,4.75h0Zm-.33.06h0Zm.68-.47s0,0,0,0h0Zm3.94-.56h0Zm.11-.12Zm.61.11h0ZM14,3.73h0Zm.58-.1Zm-6.44,3h0ZM6.51,21.27h0ZM5.06,11.53h0Zm0,.55h0ZM5,11.86H5v0ZM6.55,8.34h0ZM8,6.88H8ZM5.13,11.81h0Zm0,0h0Zm.13-1.16a.24.24,0,0,1,0,.07l0-.08ZM6.48,9.13h0ZM5.56,10.8v0h0Zm-.35.93,0,.12v0ZM8.59,22.45h0ZM5.1,17.65h0Zm.4,1.48,0,0h0ZM14,25.86ZM4.87,16.19v0Zm-.18-.77h0Zm0-.2v0Zm.06.8s0-.06,0-.07V16Zm0,1.18h0Zm-.17-.3h0Zm0-1.92h0ZM14.86,25.81h0Zm1.87-.09h0ZM14.35,25h0Zm3.14.24h0Zm-1.57.18h0Zm-.55-.17Zm-1.43.5h0Zm.14,0h0Zm3-.44h0Zm-2.25,0h0ZM7.22,21.69l0,0,0,0Zm1.38,1.4h0Zm-.34-.42v0h0Zm.44.36h0Zm1.56,1.12h0Zm.05.06h0Zm4.51,1.29h0ZM12.16,25Zm-.75-.24h0Zm1,.43h0Zm-.3-.14h0Zm-.07.08Zm2,.17Zm0-.13h0Zm.72.39h0Zm-1.4,0h0Zm-3.12-1.19Zm-1-.79h0ZM6.64,20.84h0ZM16.9,25.42h0Zm-.92.12Zm-.31.14h0Zm-.38,0h0Zm-.83,0h0ZM6.67,21l0-.06Zm3.24,2.75h0Zm.91.62Zm3,.76H14Zm2.39.26h0Zm.94-.3h0Zm-2.52.69h0Zm-.73-.07h0ZM6.27,20.56v0h0v0Zm1.12.89h0Zm7.32,4.32h0Zm-7-3.43h0Zm3.54,2.11h0Zm4.48.92h0Zm.21,0h0ZM18.77,25h0Zm-1.32.47h0Zm-6.78-.64h0ZM8.09,22.86h0ZM5.81,19.15h0Zm.84,1.42ZM7,21H7Zm7,4h0Zm.18,0h0Zm4.12-.12Zm-.09.18h0s0,0,0,0Zm-1.32.72h0Zm-6.5-1.07,0,0,0,0h0Zm-.49-.26h0ZM4.48,16.31Zm.32-.72h0Zm.1.48Zm.09.26Zm1.67,4.25Zm6.16,4.24h0Zm4.85.06h0Zm0,.52h0Zm-.13.1h0Zm-.21.09h0ZM4.83,14.74h0ZM5,16.14H5Zm.16.68h0Zm3.15,5.36,0,0h0Zm.47.44h0Zm2.55,1.64,0,0h0Zm2.72.55Zm1.84.19h0Zm3.52-.37h0ZM19,25h0Zm-3.31.82h0Zm-4.89-1.91Zm3.43.9h0Zm3.14,0h0Zm3.12-.64h0Zm-3.92,1.86h0Zm-1.72-.13Zm-3.55-.66Zm-3.71-2.9h0ZM4.63,14.57Zm.11-.36h0Zm0-2.16v0h0ZM9.34,5.87ZM8.2,7.09h0ZM20.89,24l0,0Zm.29-.29h0Zm.22-.12.06,0h0Zm-3.61,2.11h0ZM15.7,26h0ZM14,26h0Zm-2.63-.66h0Zm-.79-.43h0ZM5.77,9.75l0,0h0Zm.9-1.65h0Zm2.07-2,0,0,0,0Zm.73-.62Zm5.18-2ZM9.58,6h0ZM6.68,8.8h0v0h0ZM5.24,12.14h0Zm-.32,1.53h0Zm.55,4.54v0h0Zm1,1.77h0Zm5.64,4.64h0s0,0,0,0Zm6,.79h0ZM14.11,26h0Zm-2.2-.44h0ZM4.57,17.22h0Zm.17-4h0ZM13,3.8Zm4.46-.08h0Zm1,.1h0Zm-7.58,20h0ZM22.28,23Zm-2.82,1.93h0Zm-1.31.44h0Zm-.07.33h0Zm-5,0Zm-1.63-.31Zm-1.07-.55h0ZM8.53,23.42h0ZM4.86,18.28h0ZM4.4,14.67h0Zm0-1.06Zm7.74-9.43,0,0,0,0Zm1.27-.44h0Zm1.81-.27h0Zm.32-.07h0Zm1.76.28h0ZM7.79,7.48h0ZM6.39,9.43h0v0Zm-.16.35Zm-.88,2h0ZM5,14.12s0,0,0,.06A.59.59,0,0,1,5,14.12Zm.1.54Zm1.72,5.69h0ZM10,23.24h0Zm.08,0h0Zm.84.53h0s0,0,0,0Zm3.14.88h0Zm4-.06h0Zm4-1.19h0Zm-3.67,2.32h0Zm-4.9.15h0Zm-2.53-.67h0Zm-.8-.45,0,0h0ZM6.52,21.43h0Zm2-15.31h0l0,0ZM11,4.39h0ZM12.28,4h0Zm2.58-.58Zm4,.48h0Zm-.78.53h0ZM10.22,5.47h0ZM8.37,7.1h0ZM5.45,17.83h0Zm8.7,6.83Zm2.23.22h0Zm7.2-3,0,0Zm-7.22,4.28h0Zm-12-12.63h0v0Zm.3-1.11h0ZM8.26,6.2l0,0Zm.1,0,0,0Zm1-.86Zm-3.84,6h0Zm-.05.12h0Zm6.9,12.78h0Zm5,.37h0ZM21.5,24h0Zm-1.83,1h0Zm0,.52h0Zm-.34.26,0,0,0,0Zm-6.83,0h0Zm-2.64-1h0ZM8.16,23.23h0s0,0,0,0h0ZM4.61,17.84h0Zm-.28-4.33ZM19.47,4.07h0Zm-1.57.31h0Zm-4.75.08h0Zm-2,19.33.06,0h0l-.06,0Zm9.53-.14h0Zm-.1.83h0Zm-1.6,1h0Zm-2.49.81h0ZM13,26h0ZM8.85,24h0v0Zm-.34-.23ZM7.2,22.58h0l0,0v0h0v0ZM5.28,19.47h0v0ZM4.7,11.6l0-.07ZM7.93,6.38h0ZM18.55,3.67h0Zm.56.92h0Zm-1.92-.33ZM14,4.2Zm-5.55,3h0Zm-3.18,8h0Zm8.58,9.36h0Zm2,.3Zm3.27-.6Zm1.31.42h0Zm-1.49,1ZM21,25.07h0Zm-6,1.25h0Zm-.36,0ZM13.32,26h0Zm-.57-.05h0Zm-1.17-.37h0Zm-1-.41h0ZM7.41,22.84l.18.14h0Zm-2-3.1h0ZM4.37,13.21h0ZM6.66,7.74h0Zm0-.06h0S6.66,7.68,6.66,7.68ZM9.5,5.16h0ZM12,3.88h0l0,0Zm4.18-.62h0Zm.55.12Zm1.79.23ZM19.87,4h0Zm-.34,1.1h0ZM19.39,5h0Zm-8.31.2h0ZM5.31,12.69v0Zm0,2.29h0Zm.11.38Zm4.67,7.77h0Zm5.7,1.6h0Zm7.65-3.28h0Zm.16-.1,0,0h0Zm.22.12,0,0v0ZM19.86,25h0Zm-.17.45h0Zm1-.3h0Zm1-.46h0Zm-2.46,1.16-.06,0Zm-3.08.5ZM14,26.25h0ZM8.71,23.92h0ZM5.81,20.43h0v0Zm-.33-.58ZM4.3,17.14h0a.22.22,0,0,0,0,.08A.44.44,0,0,0,4.3,17.14Zm-.19-2.55v0ZM8.34,5.81h0ZM19.74,3.92h0Zm0,.91Zm-2.36-.47h0Zm-1.66-.12h0ZM10.55,5.52h0ZM7.87,7.72Zm-.08.1h0Zm-2.34,8ZM8,21.16H8Zm8,3.63h0Zm8.74-2.86h0Zm-7.65,4.42h0Zm-1.92,0h0Zm-3.36-.71h0Zm-3.92-2.3s0,0,0,0h0l0,0h0l0,0ZM5.66,20.44h0ZM6.2,8.3h0ZM8.87,5.51h0Zm1.19-.72h0l0,0h0Zm1.76-.88h0Zm.4-.25Zm.33-.05h0ZM18,3.51ZM19.85,4.8h0ZM8.59,7.1h0ZM7,8.82H7ZM5.51,12.43h0Zm.08,4.73h0Zm0,.2v0Zm2.15,3.54h0Zm3.1,2.59h0Zm11.86-1.41,0,0h0Zm-.19.16Zm.68-.55h0Zm.74,0h0Zm-1.68,1.92h0Zm-.21.77h0Zm.63-.51h0l0,0Zm1.66-1.58h0Zm1.4-1.88h0Zm0,.3,0,0s0,0,0,0Zm-.05.19h0Zm-9.1,5.48h0ZM13.5,26.1h0Zm0,0h0Zm-1.84-.48h0Zm-2.07-1h0Zm-3.88-4ZM5,10.32H5Zm15.81-5.9h0Zm-.49-.06h0Zm-.74.89h0ZM12.4,4.87h0Zm-5.48,15h0Zm.37.28,0,0ZM19.71,23.9h0Zm3.84-2.77h0Zm2-3.61h0Zm0,3.15h0ZM23.2,23.81h0Zm-1.68,1.07h0Zm-5.24,1.5h0Zm-.15,0ZM10,25Zm-1-.73H9ZM5.42,20l-.06-.1a.24.24,0,0,1,.06.1ZM4.17,16.64v0Zm0-3.41h0ZM5.81,8.64h0ZM9.92,4.82h0Zm5.52-1.64Zm5.11,1h0Zm-.15.28h0Zm.36.54,0,0Zm-.79,0h0Zm-6.64-.25h0Zm-1.83.49h0l.06,0h0Zm-.07,0h0l0,0Zm-.9.43ZM9.94,6ZM5.68,12h0Zm-.3,2.86h0Zm.19,1.66h0ZM8.8,22.06h0ZM26.11,20.3v0h0ZM13.49,26.18h0ZM8.2,23.73h0Zm-2.54-3ZM4,14H4Zm.12-.85Zm7-9h0ZM23.84,7.32h0Zm.45.77h0Zm0-.1h0Zm-3.61-2.9h0Zm4.75,6.5h0Zm-.67-1.73h0Zm-2.22-3,0,0h0Zm-.18-.12h0ZM22,6.45h0Zm.59.46Zm2.07,2.61v0h0Zm-2-2.33h0Zm.23.2h0Zm2.88,5.11a.17.17,0,0,0,0,0,.16.16,0,0,1,0-.05h0Zm0-.08h0Zm-.1-.1Zm-1-2.24v0h0ZM6.18,18.46v0S6.19,18.47,6.18,18.46Zm8.08,6h0Zm9.84-3.37Zm.29.22Zm-1.56,1.93h0Zm-1.16,1.36h0ZM26,20.17h0l0,0ZM14.53,26.39h0Zm-1-.15h0ZM6.84,22.41h0l0,0h0Zm-2.6-5.15ZM9.15,5.13Zm12-.57h0Zm5,7.43h0ZM21.36,5.47h0Zm3.94,6.09v0h0Zm-1.4-2.67h0ZM9.14,6.81l0,0h0ZM8,7.78v0ZM8.9,22Zm12.87.68h0Zm2.07-2.21h0Zm1.6-2.94h0Zm-.15,1.1h0Zm-.86,2.07h0Zm-1.93,3.65h0Zm-1.1.68ZM18,26.31h0Zm-5.28-.24h0Zm-2.65-1,0,0,0,0Zm-4-3.6h0Zm-1.5-3ZM3.9,14.56h0Zm.61-3.09Zm.43-1.25h0Zm.27-.54ZM18.57,3.46h0Zm3.68,2.21.06,0h0Zm.69.62h0Zm1.4,1.54,0,0Zm1.64,3h0ZM22.44,6.34h0ZM20.78,5.24l-.06,0h0Zm0,.07Zm4.64,5.6h0S25.41,10.91,25.41,10.91Zm.36,1.84h0ZM24.08,9.1ZM21.31,6.26Zm0,0h0Zm-.26-.1h0Zm-1.78-.91ZM8.59,7.33l0,0,0,0Zm-3,8h0Zm20.26,1h0s0,0,0,0h0ZM21.3,24.58h0Zm1.5-1h0l0,0Zm0,0h0Zm-11.69,1.9h0ZM9.9,25h0s0,0,0,0h0Zm-2-1.43h0ZM4,14.13H4Zm.1-1.5h0Zm.82-2.24Zm5.36-6Zm6.42-1.27h0Zm1.65.22h0Zm1.88.55h0Zm1.76,1.52ZM23.3,6.58h0Zm-1.16-.25h0Zm3.68,6.89h0v-.05h0Zm-.75-2.08h0Zm-.42-1h0l0,.07h0ZM9.85,6.34h0Zm-1.09.84h0ZM7.63,20.38l0,0,0,0Zm8.93,4.14h0Zm8-3.54,0,0,0,0Zm1.51-1.29h0Zm.23-.42Zm.35-.21h0ZM16.29,26.51h0Zm-1.05,0h0Zm-1.88-.23h0Zm-6.3-3.57h0ZM4.57,11.2Zm4.32-6h0ZM14.75,3h0Zm6.53,1.83h0Zm1.17.9h0Zm3.78,5.58h0ZM21.68,5.81h0Zm2.63,2.88h0Zm1.21,2.46,0,0Zm0,1.5,0-.11h0A.52.52,0,0,1,25.52,12.65Zm-.23-.71h0Zm0,0ZM23,7.77h0Zm-.21-.27h0Zm-3.07-2.1h0Zm-.39-.15h0Zm-7-.2h0ZM7.54,8.57Zm-2,5.87h0Zm.34,3h0Zm1.69,2.78,0,0h0l0,0Zm7.29,4.17h0Zm1.68,0h0Zm3.06-.67h0ZM21,23.08h0Zm2.12-1.76h0Zm1.56-1.11h0Zm-.09.15Zm-3.82,4.42h0Zm1.78-1h0l.11-.08s0,0,0,0Zm4.17-5h0v0ZM12.37,26h0ZM3.86,15ZM21.3,4.5h0ZM24.54,8h0Zm2.07,6.25h0v0h0ZM25.4,10.77h0ZM14.88,4.58h0Zm-.54,0ZM8.06,7.95h0ZM6.7,19h0Zm.41.67v0h0Zm9.26,4.83Zm3.94-1.06s0,0,0,0Zm3.82-3.34h0Zm1.61-3.81v0ZM23,23.41h0ZM25.88,21h0Zm-2.19,2.57h0Zm-1.27,1h0Zm-2,1.07.1-.05ZM4.07,12.34h0Zm.15-.16h0ZM8.32,5.6h0l0,0ZM14.95,3h0ZM21.5,5.11h0l0,0h0ZM26,12.17ZM24.38,9.72ZM7.17,9.16h0ZM5.76,12.62v0h0ZM8.51,21.4h0ZM20,23.56h0Zm5.33-6Z"></path><path class="cls-1" d="M16.7,3h0Z"></path><path class="cls-1" d="M6.27,24.21s-.06-.08-.08-.1A1.89,1.89,0,0,0,6,23.92l-.1-.12,0,0,0,0-.17-.19s0,0,0,0h0c0-.06-.09-.12,0-.06s0,0-.07-.1a3.21,3.21,0,0,1-.24-.29,1.14,1.14,0,0,1-.15-.26l0,0c-.06-.1-.2-.3-.15-.27l0,0h0s0,0,0,0,0-.1-.08-.19h0s0-.06-.16-.24v0l-.32-.56-.2-.35-.07-.12a3.11,3.11,0,0,1-.19-.36c0-.09-.08-.19-.13-.27a5.23,5.23,0,0,1-.36-.84l-.15-.45h0a3.22,3.22,0,0,0-.11-.33l-.09-.39A10.59,10.59,0,0,1,3,17a8,8,0,0,1-.1-1.35c0-.27,0-.57,0-.88h0A7.89,7.89,0,0,1,3,13.66c0-.13,0-.28.07-.42a1,1,0,0,1,0-.19c0-.14.07-.31.11-.46l.06-.24.05-.2v0c0-.14.08-.31.14-.46h0l.21-.58.06-.17v0l0,0c.1-.27.25-.57.38-.81h0s0,0,0,0l0-.06a2,2,0,0,0,.09-.21l0-.09c.1-.2.22-.37.33-.54h0L4.76,9a7,7,0,0,1,.66-1l.09-.11.08-.1.11-.15c.12-.14.26-.27.39-.43l.37-.4.07-.08a2.9,2.9,0,0,1,.39-.36l.32-.3a7.89,7.89,0,0,1,.87-.66,7.29,7.29,0,0,1,1-.61h0a1.28,1.28,0,0,0,.21-.14l0,0s0,0,0,0c.27-.19.34-.22.19-.19l.21-.12.12-.06.05,0a6.61,6.61,0,0,1,.87-.37l.93-.31,1-.22a2.51,2.51,0,0,1,.44-.07h.18l.11,0,.13,0,.35,0,.29,0h.34l.21,0h.43c.16,0,.37,0,.55,0l.29,0a3.05,3.05,0,0,1,.45,0l.24,0,.29,0,.24,0a.72.72,0,0,0,.23,0h0l.66.17.13,0,.43.1.18,0c.07,0,.15,0,.12,0s0,0,.1,0,.19.05.16,0h0l.09,0s.06,0,0,0,0,0,0,0l.05,0-.08,0s0,0,0,0,0,0,0,0,0,0,.21,0l.24.07s0,0,0,0h0l.2.07.26.14h0a.35.35,0,0,0,.14.07.93.93,0,0,1,.17.07l.2.09h0a1.82,1.82,0,0,1,.27.13l.17.11c.27.16.48.31.77.47a2,2,0,0,1,.29.2l0,0a2.4,2.4,0,0,1,.36.28l.08.06a2.27,2.27,0,0,1,.39.3l.75.69.07.07.63.71h0l.09.1h0a2.89,2.89,0,0,1,.4.52h0l.13.18a1.13,1.13,0,0,1,.14.18,1.38,1.38,0,0,0,.19.26c.05.08.15.24.22.38l0,0A1.47,1.47,0,0,0,26,9h0a4.21,4.21,0,0,1,.37.66l.14.32.06.13,0,.05c0,.09.07.18.12.26s.06.12.07.18.07.19.1.3c.1.3.22.59.29.89l.14.55v0c0,.13.07.27.1.41a2.62,2.62,0,0,1,0,.28l0,.19c0,.23.07.46.09.68s0,.17,0,.26,0,0,0,0h0a2.74,2.74,0,0,1,0,.31,6.41,6.41,0,0,1,0,1.19c0,.1,0,.22,0,.34s0,.16,0,.23c0,.28-.08.58-.13.87a7.91,7.91,0,0,1-.21,1v0c-.06.2-.1.42-.17.63l-.35,1a.77.77,0,0,1-.08.17l-.36.77a3,3,0,0,1-.26.48c-.22.32-.39.72-.66,1l-.17.21-.18.24h0l-.06.09a2.52,2.52,0,0,1-.3.37s0,0,0,0l0,0-.5.55c-.2.22-.44.4-.67.62s-.31.28-.47.41l-.9.66-.11.07-.17.1-.43.25s0,0,0,0h0a3.44,3.44,0,0,0-.3.18l-.33.16-.86.4-.3.1-.15,0a8.42,8.42,0,0,1-1.22.36c-.23,0-.46.11-.7.15l-.72.1-.08,0h0l-.64,0h-.1a5,5,0,0,0-.55,0c-.29,0-.58,0-.86,0h-.07l-.45,0-.29,0a9.48,9.48,0,0,1-1.35-.25l-.29-.08L11.78,27h0l-.56-.21h0l-.28-.1a2.08,2.08,0,0,1-.37-.14l-.89-.41a2.86,2.86,0,0,1-.4-.23c-.39-.24-.73-.39-.93-.52S8,25.19,8,25.2s0,0-.1,0-.14-.08-.13-.06,0,0-.18-.1h0s0,.07-.14,0,0,0,0,0-.07,0,0,.11-.11-.06-.11,0,.06.07.05.09-.06,0,.06.09a1.27,1.27,0,0,0,.15.17s0,0,0,0,0,0,0,.09v0s.1.11.3.26l.19.13L8.2,26l.22.14.64.39a6.18,6.18,0,0,0,.7.35,8.45,8.45,0,0,0,1,.44l.08,0,.69.25.71.18.38.1c.45.09.9.15,1.36.22,0,0,0,0,0,0h0l.83,0a10.43,10.43,0,0,0,1.38,0c.16,0,.33,0,.49,0s.63-.08.94-.12l.84-.2.19,0h0l.16,0h0l-.15,0-.1,0-.25.07s0,0,0,0c-.16.06-.37.11-.6.18l-.1,0c-.12,0-.46.09-.67.13l-.1,0h0a2,2,0,0,0-.32,0,1.27,1.27,0,0,1-.25,0,14,14,0,0,1-1.48,0l-.25,0h0l-.26,0h0a4.51,4.51,0,0,1-.58-.06l-.09,0h0l-.25,0-.15,0c-.39,0-.76-.17-1.16-.25-.1,0-.18,0-.18,0h0l-.25,0h-.06c-.11,0-.17-.05-.1,0l-.2-.06L11,27.6l-.25-.09h0s0,0,0,0l-.29-.1-.14-.06a3.33,3.33,0,0,1-.54-.24L9.53,27l-.3-.14c-.22-.11-.41-.25-.63-.36l-.22-.13c-.17-.11-.36-.21-.54-.35l0,0L7.73,26h0c-.28-.22-.58-.43-.87-.67l-.19-.17h0a1.25,1.25,0,0,0-.26-.21s-.13-.08-.14-.07-.12-.06-.29-.18-.1-.07,0,0c-.09,0-.09,0-.07.05s0,0-.06,0-.05,0,0,0l.08.15,0,0h0l0,0s-.06,0-.07,0,.11.14.08.14.16.16.19.21l.32.3a7.42,7.42,0,0,0,.81.67,8,8,0,0,0,.85.6l.21.14.32.19h0a4,4,0,0,0,.42.23l.14.07.94.45,1,.35.15.06a12.91,12.91,0,0,0,1.95.45l.15,0,.1,0h0l.38.06-.12,0,.12,0a14,14,0,0,0,2,.08h.73l.3,0h0l.71-.09a2.28,2.28,0,0,0,.38-.06l.63-.14c-.08,0-.09.06-.09.07s-.17.05-.16.06.07,0,.06,0,0,0,0,0,0,0,0,0h0l-.16.06c-.14,0-.11,0-.09,0l.1,0h0c-.11,0-.23.07-.06,0l.06,0c-.05,0,.1,0,.12,0V29c.15,0,.16,0,.17,0h0s0,0,0,0,0,0,.13,0,0,0,.22,0a3.11,3.11,0,0,0,.39-.11l.26-.1h0s0,0-.09.05c-.22.07,0,0,0,0l.1,0,.9-.3a4,4,0,0,0,.66-.27l.37-.17.09,0a3.64,3.64,0,0,0,.42-.2l.26-.15.15-.09.28-.16c.17-.1.18-.11.08-.06l-.72.42-.14.08h0l-.14.06c.07,0,.16-.07.23-.12l0,0,.74-.42,0,0h0A5.25,5.25,0,0,0,23.3,27l.1-.07.52-.38.22-.16h0l.21-.18.19-.18.09-.08.09-.08c.18-.17.37-.33.55-.5l.5-.55h0l.39-.43c.25-.31.48-.63.72-1a6.22,6.22,0,0,0,.46-.72h0c.05-.07.11-.17.17-.27l.16-.28a2,2,0,0,0,.16-.3h0s0,0,0,0l.4-.83c.23-.45.34-.94.52-1.39h0v0l0-.11a16.81,16.81,0,0,0,.43-1.78h0s0,0,0,0,0,.15,0,.23,0,.16-.06.26a1.31,1.31,0,0,0,.06-.26l.11-.74.06-.4c0-.34,0-.71.08-1v-.29a.7.7,0,0,0,0-.12c0-.09,0-.19,0-.29V14.7l0-.83L29.33,13c0-.16,0-.36-.06-.51l0-.18c0-.19-.09-.37-.14-.55a5.51,5.51,0,0,0-.26-1v0c-.11-.33-.19-.63-.33-1l-.1-.22,0-.06,0,0,0-.06L28,8.85a5.12,5.12,0,0,0-.39-.71l0,0-.11-.19h0l-.08-.16,0-.06,0-.06,0,0s0,0,0,0,0-.14-.06-.23l0,0c-.08-.14,0-.09-.08-.22l0,0c.11.14.09.1.06,0l0,0,0,0-.06-.1v0s0,0,.07.06l-.2-.3c-.14-.19-.27-.38-.42-.57L26.53,6l-.08-.08-.08-.1L26,5.42c-.2-.19-.39-.45-.62-.64l0,0-.17-.15h0l0,0h0A.79.79,0,0,0,25,4.41l-.18-.16L24.54,4a3.89,3.89,0,0,0-.33-.26L24,3.58a4.54,4.54,0,0,0-.51-.36l0,0h0l0,0a3.92,3.92,0,0,0-.71-.46l-.34-.19-.25-.16a1.49,1.49,0,0,0-.38-.18l-.1,0a10.62,10.62,0,0,0-1.34-.59h0l-.45-.16a5.18,5.18,0,0,0-.65-.21l-.47-.12L18.5,1l-.4-.1a3,3,0,0,0-.4-.08h-.06l-.3,0-.23,0h0l-.35,0-.16,0L15.39.61h-.17l-1,0h-.45l-.3,0A12.89,12.89,0,0,0,11.89,1L11.66,1,11.6,1a11.79,11.79,0,0,0-1.42.42l-.06,0-.11,0-.11,0-.22.07h0L8.81,2l-.43.2c-.27.14-.57.33-.85.48l-.14.08c-.13.08-.27.15-.4.25l-.27.2-.65.47a1,1,0,0,0-.21.18h0c-.24.19-.53.47-.8.71A4.49,4.49,0,0,0,4.66,5L4.61,5l-.83.93L3.7,6h0s0,0,0,0l0,0L3,7l0,0a2.14,2.14,0,0,0-.14.21c-.05.08-.09.17-.15.25l-.25.41-.08.16h0l-.15.25h0l-.4.85,0,.06-.18.39,0,0,0,.06s-.06.14-.09.23l-.34,1c-.1.33-.17.67-.25,1l0,.06c-.16.58-.2,1.18-.3,1.76,0,.18,0,.36,0,.54v.12c0,.22,0,.44,0,.65s0,.3,0,.43v.18c0,.27,0,.52,0,.79,0,.49.12,1,.19,1.45a1.69,1.69,0,0,0,.08.36l.16.63a9.68,9.68,0,0,0,.43,1.33l.12.31c0-.06.07.1.08.09h0a1.43,1.43,0,0,0,.1.21s0,0,.14.14a.53.53,0,0,0,.13.15v0h0v0l0,.06v0a1.09,1.09,0,0,0,.07.14s.15.15.24.26,0,0,0,0,0-.07,0,0,.08.11.06,0,0,0,0-.11l0,0c.06.06-.09-.28-.12-.39s-.11-.25-.13-.31l0,0c-.12-.26-.19-.55-.29-.82l0,0c-.08-.27,0-.2,0-.2s.06,0,0-.2l0-.12a.45.45,0,0,1,0-.12l0-.16c0-.17-.08-.38-.13-.57a5.73,5.73,0,0,1-.18-.93,6.38,6.38,0,0,1-.12-.76,2.33,2.33,0,0,1,0-.42,1.43,1.43,0,0,0,0-.23l0-.85c0-.34,0-.68,0-1,0-.11,0-.21,0-.32,0-.3.08-.6.12-.91l0-.13v-.07l0-.26c0-.08,0-.15,0-.23l0-.1,0-.07.22-.88a3.57,3.57,0,0,1,.14-.43v0h0l0,0V11s0,.1,0,.19,0,.14,0,.14,0-.07,0,.1-.15.63-.23,1-.12.77-.17,1.14h0a5,5,0,0,0-.07.66c0,.34,0,.7,0,1v.15c0,.08,0,.16,0,.22h0s0,.08,0,.05v.08h0c0,.07,0,.1,0,.14v0a1,1,0,0,0,.07.28.52.52,0,0,0,.05.18.43.43,0,0,1,0,.15c0,.17,0,.07,0,.12s0,0,0,.08a.67.67,0,0,1,0,.11s0,0,0,0h0c0,.14,0,.15.05.15s0,0,0,.06v.1c0,.09,0,0,0,0h0a1.32,1.32,0,0,0,.05.2s0,0,0,0v0h0c0,.09,0,.11,0,0s0,0,0,0,0,.14,0,.15.12.35.16.36a.46.46,0,0,0,.07.14.35.35,0,0,1,0,.11c0,.1,0,0,0,0h0s0-.07,0,0,0,0,0-.11h0s0,0,0-.06v0c0-.06,0,0,0,.1s.06.14.05,0v0h0a.46.46,0,0,0,.08.17l0,.11a.87.87,0,0,0,.09.15s0,0,.07.14l0,.09c0,.07,0,0,0,.05v0l.17.47,0,.09c.05.16.1.32.17.49s.11.28.17.42a11.73,11.73,0,0,0,.59,1.22c.08.12.15.26.14.2s0,0,.12.14a.84.84,0,0,0,.27.27l.1.09c.09.1.18.18.13.07h0l.06.07s0,0,.08.07l.19.25c.15.2.28.4.44.58l.65.7Zm2,1.18h0Zm5.07,3.34Zm3.72,0h0Zm7.1-2.47h0Zm-3-22,0,0,0,0Zm1.67,1.11h0ZM11.7,27.61h0Zm4.87.46Zm5.19-.21h0ZM24,26.46h0ZM25.3,4.75h0l0,0ZM23.14,3.05h0l-.06,0ZM13.51,27.39ZM27.44,22.5h0ZM1.91,17.4ZM26.25,21l0,.05V21ZM10.09,27.31h0Zm1.82,1.08h0Zm1.64.25Zm7.14-.28h0ZM2,21Zm8.16,6.28h0Zm18.68-8v0ZM17.67,1h0ZM1.12,17.12h0ZM9.89,27.31h0ZM8,26.29H8S8,26.28,8,26.29Zm-1.39-1v0Zm3.22,2.23h0ZM7.27,26h0Zm2.14,1.19h0Zm.91.48Zm-.4,0Zm-.3-.11h0ZM9.18,27h0Zm1.6.72h0Zm6.45.88ZM23.58,3.49l0,0,0,0ZM13.48.85ZM11,1.29ZM.94,14.73h0a.08.08,0,0,1,0,0Zm.54-.85h0v0h0v0ZM9.74,4.06h0ZM25.91,8.65l0,0,0,.06Zm.17.12h0ZM12,28.21h0Zm2.66.38h0Zm-.32,0h0ZM29.12,13.13Zm-17.62-12h0Zm5,27.36h0ZM26.69,6.84h0ZM20.6,2ZM.81,18.05h0ZM6.41,6.54h0ZM7.1,3.29h0ZM4.79,5.05h0l0,0ZM1.23,11.17h0Zm1.68,7.29v0A.07.07,0,0,0,2.91,18.46ZM20.6,3.58h0Zm5.55,5h0ZM22.39,27.2h0Zm4.22-4v0h0ZM2.12,8.81h0ZM8.78,4.52h0ZM24,4l0,0h0ZM2.7,8Zm-.93,5.22h0ZM22.66,4.87l0,0-.08,0h0Zm5.26,11.79h0ZM20.27,26.72h0Zm.17,1.47h0Zm8.27-16.3h0v0h0S28.7,11.86,28.71,11.89Zm-27.2-1.3ZM12.12,1.2h0ZM22.36,25.91h0Zm-1.58.71h0ZM7.12,3.44h0l0,0ZM2.54,8.57l0,0h0Zm-.47.87h0ZM22,2.87h0l0,0ZM11.1,3.09h0Zm16,6.84h0l0,.05Zm1,5.65h0ZM21.45,27.32Zm6.28-18h0l0-.07ZM19.87,2.09l-.08,0ZM3.32,7.32l0,0,0,0Zm1.59.5h0Zm23.42,7v0ZM21.88,26.67l-.06,0,.06,0ZM24,5.67h0Zm3.33,14.51h0Zm.23-.34h0Zm-.19,1Zm-2.93,3.91,0,0,0,0h0l0,0h0Zm0,.2h0Zm-.63.44,0,0,0,0Zm2.27-2.18h0Zm-.41.59h0Zm3-8.21h0v0ZM17.37,1.43h0Zm9.74,7.22h0Zm-.48-.49h0Zm.24.14h0v0Zm1.71,4.41Zm0,2.57h0ZM26.8,8.45h0Zm0,0h0Zm.89,1.13,0-.09,0,.1ZM28,12h0ZM27.3,9.71h0s0,0,0,0ZM26.8,8.6l-.07-.13,0,0ZM14.54,2.21h0Zm7.21,1.14h0Zm-1.63-.94-.05,0h0ZM6.86,4Zm16.37.47,0,0Zm.82.52h0Zm.16.19,0,0v0Zm-.75-.64.07.06h0Zm-1-1h0Zm.41.11h0Zm1.67,1.66h0ZM6.16,4.75h0S6.17,4.75,6.16,4.75ZM4.61,6.45v0h0ZM7.33,5h0ZM4.39,7.54ZM5.6,6h0Zm.63-.33ZM7,4H7Zm-.1.14h0Zm-2.22,3v0Zm1.94-2h0l0,0,0,0Zm9.73-3.48h0ZM14,1.67h0Zm.66.08h0Zm-.7.06h0Zm-2.33.38h0Zm-.1,0h0ZM6.45,5h0l0,0,0,0ZM9.23,3.11h0Zm.86-.45h0ZM8.8,3.19h0Zm.39-.14h0Zm0-.13ZM7.32,4.49h0Zm.11.11h0Zm-1,.29h0ZM7.7,3.69h0ZM11.44,2ZM13,1.84h0Zm4.65.08h0ZM4.72,6.86h0ZM5.43,6h0Zm.15-.39h0ZM6,5.28l.05,0-.07.06Zm.74-.7ZM17.51,1.85h0Zm-5.21.42h0ZM11,2.53h0Zm-3.32,2-.1.08,0,0,0,0ZM5.35,6.37l-.08.09ZM4.79,7.45l0,0h0Zm1.59-2.8h0Zm.7-.57h0ZM18.2,1.84h0ZM16.45,2h0ZM6.32,4.64h0ZM15.4,1.54h0ZM10.48,2.77h0Zm-4.7,3.1Zm-.15.2,0,0ZM3.48,8.88h0Zm.74-1.55v0ZM10.67,2Zm3.95-.57h0Zm5.21,1.24h0Zm-2-.5h0Zm-.7,0h0ZM7.6,4.76h0Zm-.17.14h0ZM3.94,8.59Zm-.07-.23h0ZM4.4,6.58h0ZM11,1.86l.06,0H11Zm.66-.2h0ZM23.45,4h0Zm.35.91h0Zm-.5-.33ZM23,4.43h0ZM17.86,2.18ZM8.81,3.85l0,0ZM4.53,8l0,0ZM4,7.58H4v0S4,7.58,4,7.58Zm0-.2,0,0h0l0,0Zm.1-.26h0l0,0h0l0,0ZM24.5,5.65h0ZM23.18,4.56h0Zm-.73-.46h0ZM15,2.18h0Zm-.79,0h0ZM10.61,3l0,0h0ZM7.77,4.87h0ZM6,6.3l0,.05,0,0ZM3.26,9.68h0Zm0-.67h0Zm2.17-3.6h0Zm5.92-2.59ZM7.58,5h0ZM4.83,7.75l0,0h0ZM2.67,11h0a.08.08,0,0,0,0,0A.07.07,0,0,1,2.67,11Zm1.8-5h0ZM6.07,4.6h0ZM9.73,2.09Zm5.75-.7h0Zm9.35,4.24Zm.22.41h0Zm1.87,1.89h0Zm1.39,9.36Zm-.07-2v0h0ZM2.53,11.61a.59.59,0,0,1,0-.07A.51.51,0,0,0,2.53,11.61Zm0,.5h0Zm-.08.29,0,.09h0A.7.7,0,0,1,2.44,12.4Zm1.3-5h0v0h0ZM5.28,5.33h0ZM6.81,3.86l.07,0h0ZM9.68,2.14h0Zm1.06-.31h0Zm17.3,9v0h0ZM28.69,13h0Zm-.09,3.51v0a.38.38,0,0,1,0,.07A.78.78,0,0,0,28.6,16.54Zm-.09,1.18Zm-2.79,6.23h0ZM28,17.42v0Zm.05-5h0v0h0ZM26.43,8.28h0ZM25.37,6.67h0ZM20.94,3.2h0Zm-2.39-.7h0Zm-8.94.87h0ZM3.73,7.89h0ZM6.67,4h0ZM9,2.43H9Zm13.62.83h0Zm3.36,3.65h0Zm1,15.38h0Zm-3.82,3.95Zm-.94.79ZM11.36,3h0ZM2.13,13.63h0v0ZM2.9,9.51h0ZM3.66,8h0Zm-.22-.35v0ZM7.8,3.24h0ZM9.49,2.1Zm1.41-.46h0Zm2.85-.34h0ZM21.4,2.6h0Zm3.54,2.74h0Zm.95.9h0Zm1.48,14.93,0,.06v-.06Zm-.72,1.48h0Zm-1.34,1.81h0Zm-.22.36,0,0Zm-1.77,1.29h0Zm4.94-11.56h0Zm-.47-2.92h0v0Zm-.16-.45h0Zm-1-2.51h0Zm-1.75-2.3-.05,0ZM24.33,6h0ZM17.88,2.53h0Zm-5.22.19h0Zm-.09.05h0Zm-1.19.28h0ZM7.88,5h0ZM4.43,8.58ZM2,13.06H2ZM3.2,7.86v0h0Zm4.12-4.4h0ZM10.1,1.84h0Zm1.09-.31h0Zm6-.23h0ZM28.8,16.37h0v0S28.8,16.34,28.8,16.37Zm-.7,3.69Zm-.72,1.44h0Zm-1.74,2.75h0Zm-3.9,3.06h0ZM22,26.15h0Zm5.92-7.75Zm.19-3h0ZM21.29,3.51h0ZM7.78,5.13ZM5.65,6.88h0ZM2,15.77s0,0,0,0Zm2.56-10h0ZM26,6.29h0l0,0Zm.72,1.23h0ZM29,16.06v0Zm-.12.06v0A.18.18,0,0,1,28.84,16.12Zm-.11,1.62ZM26.83,9.17h0ZM26.77,9h0ZM9.66,3.91h0ZM5,7.91v0ZM2,12.1H2v0Zm.76-2.42h0v0Zm-.47-.43h0Zm.06-.52,0,0v0ZM8.26,2.78h0Zm3.17-1.43h0Zm2.81-.19h0ZM22,2.77h0Zm4,3.52h0Zm-5,21.39h0ZM22.17,26h0Zm4.05-4.2h0ZM11.16,3.27l-.08,0h0l.07,0ZM3,11.69Zm-.64-.81v0l0,.05S2.36,10.88,2.35,10.88ZM2.9,8.63l0,0h0ZM4.36,5.77l0,0ZM7.61,3h0ZM13,1.13h0ZM13.5,1ZM15.64.9h0Zm4.37,1h0Zm7.35,6.34,0,.06Zm1.73,7.34ZM22.21,27.21h0Zm-1.28-.31h0Zm1.95-1.38Zm2.8-2.69Zm2.25-7.39h0ZM23.78,5.75h0ZM8.18,5.07h0Zm-2,1.47ZM3.86,9.9Zm-1.5.76v0h0ZM2.79,8.5h0ZM1.45,10.75h0ZM5.58,4.45h0Zm.33-.29Zm1.46-.87,0,0Zm.54-.45h0Zm1.34-.69h0Zm1.23-.52h0ZM15.23.85,15,.89h0Zm4.43,1h0Zm6.59,4.76h0ZM29,13.33v0h0Zm.05.06h0ZM28.79,18h0Zm-1.07,3.3h0l0,0,0,0Zm-3.1,4.17Zm-.58.37h0l0,0h0Zm-1.76,1.36h0Zm-1.52.84h0Zm-.67-1.26Zm.2-.05Zm7-7.39v0h0ZM25.88,7.85a.14.14,0,0,1,0,0Zm-2-2h0Zm-.43-.22h0ZM12.66,2.92h0ZM6.31,6.49l0,0ZM2.5,16h0Zm-.06.22v-.06a0,0,0,0,0,0,0Zm-.3.08v0Zm.38-6.48h0Zm-.24-.54Zm-.64,1.18h0Zm-.5,1.3h0ZM2.27,8.6l0-.07ZM4.52,5.49Zm2-1.83h0ZM13.15,1h0Zm5.56.51h0Zm.79.22h0Zm3.38,1.33h0s0,0-.08-.06Zm2.38,2.05,0,0Zm4,11.31h0ZM21,28h0s0,0,0,0Zm-.83-.75Zm2.47-1.65h0Zm1.54-1.33Zm3.42-5.66h0ZM28,14.4h0Zm0-.15h0Zm-4.88-9h0ZM16.19,2.82h0ZM6.09,6.6l0,0ZM1,16.68v0Zm2.8-10.5h0ZM5.42,4.49h0ZM9,2.19H9ZM14.36.78s0,0,0,0h0Zm4.48.64h0Zm10.08,11h0ZM29,17.2h0Zm-.41,1.66h0v0h0Zm-.77,2.3v0h0Zm-.13.56Zm-.25.33h0Zm-4.63,4.81h0Zm-2.75.49h0Zm7.79-11.8h0Zm-.12-2.86h0ZM25.93,8.25h0ZM21.75,4.2h0Zm-.21-.13h0ZM16.59,2.85h0Zm-4.95.44h0ZM2.56,14.83v0h0Zm0-.3ZM2.47,15.6h0Zm-.67.61h0Zm-.22-3.13h0Zm-.49-.85h0Zm-.1,1v0a.12.12,0,0,1,0,0ZM.92,16h0Zm.42,2.85h0ZM1,18.67l0,.07s0,0,0,0Zm-.13-.22ZM4.07,5.78h0Zm3-2.47h0ZM7,3.3H7Zm2-1.17h0Zm2.64-1h0Zm6.87.13h0Zm9.61,8.38ZM19.56,28.56Zm.49-.37h0Zm-.14-1.42h0Zm6.61-5.94v0h0ZM18.21,3h0Zm-.56.08h0Zm-14,7.57h0Zm-.93,5.75h0v0ZM4.05,21.3v0ZM1.27,18.59ZM.64,13.75v0a.07.07,0,0,0,0,0Zm.53-2.4h0v0ZM4.42,5.49h0Zm.1-.16ZM11.1,1.28h0ZM12.61,1h0Zm6.81.56.14,0a.37.37,0,0,1-.14,0Zm4,1.84h0Zm3,3ZM29,11.81h0Zm-.25,6.9h0Zm-3.38,6.23ZM20,28.52h0Zm-.11-.38s0,0,0,0h0ZM19.14,28l.05,0Zm.74-.65h0Zm6-5.56Zm1.16-2v0l0,.08h0Zm0-.09v0l0,0Zm.4-1.16Zm.17-.86ZM26.16,8.77h0ZM23.94,6h0ZM22.32,4.76h0Zm-7.63-2h0ZM1.17,19.33v0h0S1.17,19.33,1.17,19.33ZM7,3.24H7ZM13.77.76h0Zm4.83.43h0Zm7.35,4.4h0Zm.63.85h0Zm1.73,14h0ZM14.43,28.63h0Zm-1.05-.27h0Zm.1.07h0Zm5.66-.61h0ZM9.36,26.3h0Zm2.09.92Zm4.5.64h0Zm.26,0h0Zm.6,0h0Zm-.91.12Zm-4.08-.47h0Zm3.76.31h0Zm-.38,0h0Zm-7-1.93,0,0,0,0h0Zm.09,0h0Zm.18,0Zm2.85,1.06h0ZM20.1,3.6l0,0ZM7.88,5.43h0ZM2.25,16.92ZM1.8,17h0Zm-.32-3h0Zm-.17-2.2h0Zm.1,7.57v0l0-.06ZM5.94,4h0Zm1-.71h0ZM16.09.73h0ZM22.83,3Zm6.27,14.82ZM19.2,28.68h0ZM8.42,26.53h0s0,0,0,0Zm9.78,1.56h0ZM9.46,26.23h0ZM13,27.33h0Zm14.66-11a.14.14,0,0,1,0-.06h0A.5.5,0,0,1,27.67,16.3Zm.15-1.84v0ZM14.61,2.84h0ZM2.84,13.46v0h0A.12.12,0,0,0,2.84,13.46ZM3,17.18H3Zm1.16,3.94v0ZM3.3,20v0ZM2.24,17.5ZM.75,12.63h0Zm.37-1.56h0ZM3,7,3,7H3ZM7.8,2.66h0ZM11,1.25l-.06,0h0ZM17.63.9h0Zm3.94,1.34h0ZM25.48,5h0Zm2.16,3.22h0Zm.71,1.46h0Zm.24.7h0Zm-6.2,17h0Zm-5.12,1.27h0Zm-1.14.06h0Zm-2.56-.12h0Zm-4-1.15h0Zm6.94.79h0Zm2.4-.48.08,0H18.9Zm-.06-.07h0ZM10,26.89h0ZM8,25.6H8Zm4.64,1.7h0Zm4.87.06h0Zm0,.07h0Zm.31-.13,0,0h0Zm2.33-.76h0Zm7.49-11.17s0,0,0,0v0S27.69,15.33,27.69,15.36Zm-4.35-9.6h0ZM4.87,22.53h0l0,0h0ZM1.63,11.42h0v0S1.64,11.41,1.63,11.42Zm-.47,2.13v0a.19.19,0,0,1,0,0Zm0,0h0ZM9.71,1.67h0Zm1.5-.51h0s0,0,0,0h0Zm3-.48h0ZM25.81,5.42h0ZM27,6.8h0Zm1.23,2.66h0Zm.56,9.87ZM24.33,26h0ZM22.7,27.28ZM20.6,28.42h0Zm-2.85.21Zm-2.19.18h0ZM16.78,28h0Zm-9.2-2.79h0l.06,0h0ZM10,26.39h0Zm1.21.48h0l-.09,0h0Zm16.2-9.54h0Zm.22-1.69h0ZM17.17,3.19h0ZM5.81,7.34v0h0ZM1.9,17.4v0Zm-.19,2.44h0v0Zm.16.57h0Zm-.12.48v0h0ZM4.31,5.38l0,0h0Zm.91-.92h0ZM7.06,3h0ZM15.65.65h0ZM27.82,8.51Zm1.45,9v0h0Zm-3.22,7h0Zm-7.27,4.08h0Zm-1.8.24h0ZM8.84,27.2h0Zm8.78.88h0Zm-4.79-.22h0ZM9.65,26.76l-.06,0ZM8.34,25.47l.1.07h0Zm.81.42h0Zm0,0h0Zm5.62,1.6h0Zm.43.06h0Zm4.49-.84h0Zm.47-.2h0Zm6.24-5.9v0h0Zm1.09-7.24ZM24.16,6.53h0ZM21.21,4.18h0Zm-3.89-.94h0ZM7.35,6ZM5.87,7.4h0ZM3.79,10.64h0Zm-.61,1.84h0Zm-.31,3.38v0h0Zm-.39,2.32h0ZM2.43,18ZM1.9,10.79h0Zm-.64,2.46h0c0,.06,0,.12,0,.17s0,0,0,0ZM2,21.19H2v0ZM8.13,2.39h0Zm17,2.19h0Zm-6,24.31h0Zm-5.83-.18h0ZM6,25.06H6v0H6Zm4,1.93h0Zm14.55-3.76h0Zm.43-.51h0l0,0h0Zm2.56-8.36h0ZM19.21,3.61h0Zm-.94-.22h0ZM6,7.24H6l0-.05Zm-2.5,4.35s0,0,0,0ZM3.1,17.82ZM5,22.53v0Zm-3.86-8.6h0ZM.78,18.54h0ZM.46,14.4h0Zm.24-2h0Zm.84-2.7,0,.12ZM27.27,7.08h0Zm0,.27h0v0Zm2.15,9.29h0v0Zm-3.52,8h0Zm-7.51,3.88h0l.05,0h0ZM8.3,26.34Zm3.59.68ZM27.34,12.55ZM25.55,8.31l0,0h0Zm-10-5.24h0ZM3.66,11.16ZM4.23,21Z"></path><path class="cls-1" d="M24.37,26.16l.14-.12-.13.13-.12.11,0,0,.14-.13Z"></path><path class="cls-1" d="M26,14.56s0,.07,0,.1a1.18,1.18,0,0,0,0,.2l0,.13v0c0,.07,0,.14,0,.21h0c0,.05,0,.11,0,0s0,0,0,.09a2.24,2.24,0,0,1,0,.3,1.34,1.34,0,0,1-.06.24v0c0,.09-.06.28-.07.25v0h0s0,0,0,0,0,.08-.06.16h0s0,0,0,.23h0l-.14.51c0,.12-.06.19-.09.31l0,.12a2.39,2.39,0,0,1-.1.31c0,.07-.06.16-.08.23a4.74,4.74,0,0,1-.27.69l-.17.35h0c0,.06-.08.16-.13.25l-.17.28a8.42,8.42,0,0,1-.67,1,7.25,7.25,0,0,1-.72.83c-.15.17-.33.33-.51.5h0a6.26,6.26,0,0,1-.71.59l-.28.2-.13.09L21,23l-.17.1-.15.09,0,0h0a3.9,3.9,0,0,1-.34.19h0l-.45.21-.14.07h0l0,0a6.53,6.53,0,0,1-.68.25h0l-.05,0-.18.07-.07,0c-.18.06-.34.08-.51.12h0l-.12,0a6.29,6.29,0,0,1-.93.17H17l-.1,0-.15,0-.47,0-.45,0h-.08a2.3,2.3,0,0,1-.43,0H15a6,6,0,0,1-.88-.13,6.05,6.05,0,0,1-.93-.21h0L13,24h-.08c-.26,0-.32-.07-.22,0L12.51,24l-.11,0h0a5.91,5.91,0,0,1-.71-.29l-.71-.35-.68-.43a2.32,2.32,0,0,1-.29-.22l-.06,0-.05,0-.08-.05-.09-.06-.23-.17-.18-.16,0,0-.17-.16a.58.58,0,0,0-.13-.11h0a2,2,0,0,1-.15-.15l-.08-.07c-.09-.09-.2-.22-.31-.33l-.16-.17A3.43,3.43,0,0,1,8,20.79l-.12-.17-.14-.18-.11-.17a.79.79,0,0,0-.12-.15l0,0,0,0c-.11-.17-.19-.32-.28-.48l-.06-.09c-.07-.13-.14-.22-.19-.31a1.26,1.26,0,0,1-.07-.14s-.08-.09-.08-.05,0,0,0-.06-.08-.14-.07-.1h0l0-.07s0,0,0,0,0,0,0,0l0,0,0,.07s0,0,0,0,0,0,0,0,0,0-.1-.15a1.11,1.11,0,0,1-.09-.17s0,0,0,0h0l-.07-.16a2.05,2.05,0,0,1-.07-.23h0v0a.39.39,0,0,0,0-.12.82.82,0,0,1-.06-.14.94.94,0,0,0-.06-.17h0c0-.08-.06-.16-.08-.23l0-.16c-.06-.25-.1-.46-.17-.72a1.19,1.19,0,0,1-.05-.28v0a1.78,1.78,0,0,1,0-.36v-.08a1.64,1.64,0,0,1-.05-.39c0-.28,0-.56,0-.83v-.08c0-.26,0-.51,0-.78h0s0-.08,0-.11h0a2.33,2.33,0,0,1,.07-.53h0c0-.06,0-.12,0-.17a1.43,1.43,0,0,1,0-.19,1.91,1.91,0,0,0,0-.26c0-.08.05-.23.08-.34l0,0a1.55,1.55,0,0,0,.05-.19h0a3.52,3.52,0,0,1,.17-.59l.1-.26,0-.11,0,0c0-.07.06-.14.08-.23a1.47,1.47,0,0,1,.06-.14l.11-.23c.11-.23.22-.46.34-.67l.24-.4,0,0c.06-.08.12-.19.18-.3l.14-.18.1-.13.34-.44L8,8H8l.18-.18a5.05,5.05,0,0,1,.68-.69L9.08,7l.14-.13c.18-.14.38-.29.57-.43a5.86,5.86,0,0,1,.72-.46h0c.15-.08.3-.19.46-.26l.75-.35.14,0L12.54,5A3.4,3.4,0,0,1,13,4.9c.31,0,.64-.19,1-.21l.22,0,.25,0h.08a1.67,1.67,0,0,1,.39,0h.05l.6,0c.24,0,.49,0,.74,0s.34,0,.51,0l.9.14.1,0,.15,0,.39.1s0,0,0,0h0c.07,0,.19,0,.27.07l.28.1.72.27.23.11.12.06a6.18,6.18,0,0,1,.9.49c.16.1.33.2.49.31l.48.36.05,0h0l.39.34.06.05a3.23,3.23,0,0,0,.33.31c.18.15.32.34.48.51l0,0,.24.27.14.19a7.89,7.89,0,0,1,.63.92,1.41,1.41,0,0,0,.12.2l.12.21v0l.2.44h0c0,.08.07.14.1.22a1.5,1.5,0,0,1,.13.29l.28.75a2.59,2.59,0,0,1,.09.36c.08.36.19.64.23.83s.06.28.08.28,0,0,0,.08,0,.13,0,.11,0,0,0,.16h0s0,0,.07.1,0,0,0,0,.06,0,.07,0,0,.1,0,.09,0-.08,0-.08,0,0,0-.09a.9.9,0,0,0,0-.18s0,0,0,0,0,0,0-.06h0s0-.13,0-.32l0-.18a1,1,0,0,0,0-.13l-.06-.2c0-.2-.09-.4-.14-.59a5.12,5.12,0,0,0-.2-.6,6,6,0,0,0-.33-.84l0-.06-.25-.55-.31-.51-.16-.27c-.21-.31-.43-.61-.66-.91h0l-.45-.51a9.68,9.68,0,0,0-.81-.78,3.94,3.94,0,0,0-.31-.26c-.18-.15-.41-.32-.61-.47L21,5.49l-.14-.08s0,0,0,0h0l-.1-.07h0l.11.07.07,0,.19.1s0,0,0,0l.45.25.07,0c.09,0,.31.22.46.31l.07,0h0l0,0,.22.16c.08,0,.1.09.16.14a10.49,10.49,0,0,1,.87.83l.14.16,0,0,.14.17,0,0a3.61,3.61,0,0,1,.3.37l0,.06s0,0,0,0l.13.17.07.1a9.16,9.16,0,0,1,.52.82c0,.07.08.13.09.12l0,.05v0l-.05-.07.11.17h0v0c0,.08.06.12,0,.07a1.27,1.27,0,0,1,.08.15l.07.15.09.19h0s0,0,0,0l.11.22s0,.11.05.11a3.9,3.9,0,0,1,.18.45l0,.12.09.26c.06.19.1.38.16.57l.05.2c0,.16.09.33.1.51v.12h0c0,.29.09.58.12.89,0,.06,0,.14,0,.21h0a1.07,1.07,0,0,0,0,.27s0,.12,0,.12,0,.1.06.27,0,.11,0,0c0,.08,0,.06.07,0s0,0,0,0,0,.05,0,0l0-.13v0h0v0s0,0,0,0,0-.14,0-.13,0-.18,0-.23,0-.24,0-.35a5.63,5.63,0,0,0-.08-.85,6.55,6.55,0,0,0-.14-.84l0-.2-.08-.3h0a3.07,3.07,0,0,0-.11-.38.57.57,0,0,0,0-.12l-.28-.8-.36-.76a.91.91,0,0,0,0-.12A11,11,0,0,0,24.6,8a.46.46,0,0,1-.07-.1l0-.07h0l-.19-.25.06.08-.06-.08A11,11,0,0,0,23.2,6.41L23,6.22l0,0L22.77,6l-.2-.15h0l-.46-.35a1.45,1.45,0,0,0-.25-.18L21.4,5c.07,0,.08,0,.09,0s.13.06.12.06,0-.05,0-.06,0,0,0,0,0,0,0,0h0l.13.06c.1.06.08,0,.07,0l0-.06h0c.08,0,.17.09.06,0l0,0s-.05-.06-.07-.08l0,0c-.1-.07-.1-.08-.1-.09h0s0,0,0,0,0,0-.05-.1,0,0-.14-.11a2.33,2.33,0,0,0-.28-.17L21,4.33h0l.08,0c.16.08,0,0,0,0l-.08,0L20.36,4a4.31,4.31,0,0,0-.53-.22l-.31-.11-.08,0a3.08,3.08,0,0,0-.35-.13l-.23-.06-.13,0-.25-.07c-.16,0-.17,0-.08,0l.65.18.12,0h0l.12,0-.2-.07h0l-.67-.18h-.05a2.93,2.93,0,0,0-.57-.13l-.1,0-.52-.08-.22,0h0l-.23,0h-.4l-.6,0-.6,0h0L14.6,3c-.32,0-.64.09-1,.14a6,6,0,0,0-.68.14h0l-.25.06-.25.06a2.07,2.07,0,0,0-.27.08h0s0,0,0,0l-.71.25c-.39.13-.73.34-1.1.5h0l-.09,0c-.43.25-.87.49-1.27.78H9s0,0,0,0L9.15,5l.18-.12L9.15,5l-.49.36-.26.2c-.22.17-.43.38-.64.55l-.17.16-.07.06-.16.17-.16.17,0,0-.45.51-.41.55L6,8.06,6,8.18l-.24.39a4.73,4.73,0,0,0-.4.71l0,0c-.12.26-.25.47-.37.75l-.07.19,0,0,0,0,0,0-.18.49a4.73,4.73,0,0,0-.18.63l0,0,0,.18h0l0,.14,0,0V12l0,0s0,0,0,0-.06.1-.1.17h0c0,.13,0,.06-.08.18v0c0-.16,0-.11,0-.06v0l0,.09h0c0-.06,0,0,0-.08s0,.16-.06.28-.06.38-.09.57,0,.18,0,.28v.19c0,.17,0,.31,0,.47s0,.48,0,.73V15h0v0h0a.47.47,0,0,0,0,.15v.19c0,.08,0,.19,0,.27s0,.23,0,.34l0,.26a4.76,4.76,0,0,0,.09.5v0H4v0a3.16,3.16,0,0,0,.15.67l.08.3.05.23a1.23,1.23,0,0,0,.11.32l0,.09a9.75,9.75,0,0,0,.43,1.11h0l.16.35a3.76,3.76,0,0,0,.25.5l.2.34c0,.06.08.13.11.16l.17.29c.05.1.13.18.19.28s0,0,0,0l0,0,.15.2a1.17,1.17,0,0,0,.11.15h0l.17.23.08.1.65.74.09.1.57.54.13.12.14.12.19.15a9.86,9.86,0,0,0,1.09.78l.16.1,0,0a8.86,8.86,0,0,0,1.06.57l0,0,.09,0,.08,0,.18.09h0l.72.27.36.13c.24.08.52.14.77.21l.13,0,.37.09.27,0,.65.11a.73.73,0,0,0,.22,0h0c.25,0,.57,0,.87.05a2.8,2.8,0,0,0,.43,0h.06l1,0H17s0,0,0,0h0l1-.14h0l.2,0,.23-.06.37-.09.14,0h0l.23-.06h0l.73-.26,0,0,.32-.11,0,0,0,0,.19-.08.76-.36c.25-.13.48-.28.72-.43l0,0a13.85,13.85,0,0,0,1.18-.84c.12-.09.21-.2.33-.3l.07-.06.39-.35.25-.25,0,0,.07-.07.43-.48c.26-.3.49-.63.73-.94a1.68,1.68,0,0,0,.16-.25l.28-.46a8.2,8.2,0,0,0,.52-1l.11-.25s0-.1,0-.1h0a.65.65,0,0,0,.06-.18s0,0,0-.16a.42.42,0,0,0,0-.16h0l0-.05v0a.72.72,0,0,0,0-.13s0-.17,0-.29,0,0,0,0,0,0,0,0,0-.11,0-.05,0,0-.06.06l0,0c0-.07-.11.21-.16.29s-.08.21-.1.25v0c-.08.22-.2.43-.3.64l0,0c-.1.2-.09.14-.1.13s0,0-.12.11l-.05.1-.05.08-.07.11-.25.4a4.25,4.25,0,0,1-.44.64,5.33,5.33,0,0,1-.36.51,2.27,2.27,0,0,1-.22.26l-.13.14-.47.51-.61.55-.19.18c-.18.16-.39.3-.58.45l-.09.06,0,0-.17.13-.16.1-.07,0-.05,0-.63.38a3.3,3.3,0,0,1-.33.17l0,0h0l0,0,.06-.06.13-.08c.11-.07.09-.08.08-.09s-.06,0,.05,0,.45-.28.68-.43a8.61,8.61,0,0,0,.75-.55h0a3.88,3.88,0,0,0,.42-.34l.6-.58,0,0,.05-.06.12-.14h0s0,0,0,0l0,0h0l.07-.09,0,0a.79.79,0,0,0,.12-.19.4.4,0,0,0,.07-.14.36.36,0,0,1,.07-.1c.08-.11,0-.06.05-.1s0,0,0-.06l0-.08s0,0,0,0h0c.06-.1.06-.11.06-.12s0,0,0-.06l0-.06c0-.07,0,0,0,0h0a1.08,1.08,0,0,0,.09-.14s0,0,0,0h0c0-.06,0-.08,0,0l0,0c.07-.1.06-.1.07-.12s.13-.26.11-.3a.37.37,0,0,0,0-.12.34.34,0,0,1,0-.09c0-.08,0,0,0-.05h0s0,0,0,0,0,0-.06.06h0s0,0-.05,0l0,0s0,0,0-.07,0-.12,0-.06l0,0h0a.34.34,0,0,0,.05-.14l0-.09a.48.48,0,0,0,0-.13s0,0,0-.12l0-.07c0-.06,0,0,0-.06v0l.18-.37,0-.07c.06-.12.13-.24.19-.38s.1-.23.14-.34a9.64,9.64,0,0,0,.36-1c0-.12.06-.24,0-.2s0,0,0-.14a.63.63,0,0,0,0-.31.3.3,0,0,1,0-.11c0-.11,0-.21,0-.11h0s0,0,0-.08,0,0,0-.09l0-.26c0-.19.07-.39.08-.59s0-.51,0-.78C26,14.68,26,14.62,26,14.56Zm-.5-1.84s0,0,0,0h0Zm-1-4.84ZM22.39,5.71h0Zm-5.5-2.66ZM6,17.48v0Zm-.33-1.6h0ZM24.81,9.49ZM22.27,6.41Zm-3.1-2.85h0Zm-2.06-.46h0ZM3.85,14.81h0v0ZM4.12,17h0v0ZM23.65,8.57ZM12.83,3.37h0ZM24.58,21h0ZM12.67,4.91h0Zm12.91,5.67h0Zm-.43-1.67v0Zm-.8-1.08ZM20.08,3.89h0Zm6.57,15h0Zm-1.08-8.3h0ZM10.23,4.42h0ZM6.11,21.33h0v0Zm18.76.26h0Zm.82-10.9h0Zm.52,1.7s0,0,0,0h0Zm.21,1.39h0Zm-.57-3.14h0ZM26.42,13h0Zm-.55-1.93Zm-.25-.8h0Zm.21.26h0Zm.11.24Zm0,.51Zm-.51-1.34v0h0ZM22.21,5.72ZM4.12,16.52v0Zm4.29,7.33ZM10.09,25Zm13.51-2h0v0Zm-.8.18h0v0h0l0,0,0,0Zm-10.4.9ZM5.75,12.21l0,0,0-.06Zm0-.17ZM25,8.95V9l0,0h0ZM23.66,7.21h0Zm.21.15,0,0,0,0ZM6.48,7.79h0Zm3.24,17ZM22.59,6.21h0ZM4.26,12.8h0Zm.7,6.3H5Zm20.62,2.13Zm-9.84,3.4h0Zm-2.26,1.47h0Zm2.34.31h0ZM21.39,25h0Zm3.22-5.16v0h0ZM5.89,18.18h0v0h0Zm-.31-6.07ZM18.43,3.58h0Zm-4.73-.13h0ZM19.52,25.8h0Zm-6.29-1.36h0ZM4.13,16v0h0A.17.17,0,0,1,4.13,16Zm14.61,9.93Zm3.54-2.47h0ZM5.45,16.26v0a.55.55,0,0,0,0,.08h0Zm3.76-9.8h0ZM19.38,5.07h0Zm.75-.94h0ZM6,8.74H6l0,0H6ZM20.89,25.13Zm-11.5-.71h0ZM17.72,4.34h0ZM19,4.83h0ZM13.56,26h0S13.56,26,13.56,26Zm5.58-.32h0Zm.77-.23h0ZM4.65,17.76h0v0Zm6.42,6.17h0ZM5.79,10.78h0l0,0ZM8.48,7h0ZM19,4Zm-14,6.73h0l0,.05Zm.35,8.68,0,.06ZM18,26h0Zm-.63-1.2h0ZM7.89,7.3h0ZM18.42,4.18h0ZM5.11,15h0ZM11.54,4.75h0Zm-.33.06h0Zm.68-.47s0,0,0,0h0Zm3.94-.56h0Zm.11-.12Zm.61.11h0ZM14,3.73h0Zm.58-.1Zm-6.44,3h0ZM6.51,21.27h0ZM5.06,11.53h0Zm0,.55h0ZM5,11.86H5v0ZM6.55,8.34h0ZM8,6.88H8ZM5.13,11.81h0Zm0,0h0Zm.13-1.16a.24.24,0,0,1,0,.07l0-.08ZM6.48,9.13h0ZM5.56,10.8v0h0Zm-.35.93,0,.12v0ZM8.59,22.45h0ZM5.1,17.65h0Zm.4,1.48,0,0h0ZM14,25.86ZM4.87,16.19v0Zm-.18-.77h0Zm0-.2v0Zm.06.8s0-.06,0-.07V16Zm0,1.18h0Zm-.17-.3h0Zm0-1.92h0ZM14.86,25.81h0Zm1.87-.09h0ZM14.35,25h0Zm3.14.24h0Zm-1.57.18h0Zm-.55-.17Zm-1.43.5h0Zm.14,0h0Zm3-.44h0Zm-2.25,0h0ZM7.22,21.69l0,0,0,0Zm1.38,1.4h0Zm-.34-.42v0h0Zm.44.36h0Zm1.56,1.12h0Zm.05.06h0Zm4.51,1.29h0ZM12.16,25Zm-.75-.24h0Zm1,.43h0Zm-.3-.14h0Zm-.07.08Zm2,.17Zm0-.13h0Zm.72.39h0Zm-1.4,0h0Zm-3.12-1.19Zm-1-.79h0ZM6.64,20.84h0ZM16.9,25.42h0Zm-.92.12Zm-.31.14h0Zm-.38,0h0Zm-.83,0h0ZM6.67,21l0-.06Zm3.24,2.75h0Zm.91.62Zm3,.76H14Zm2.39.26h0Zm.94-.3h0Zm-2.52.69h0Zm-.73-.07h0ZM6.27,20.56v0h0v0Zm1.12.89h0Zm7.32,4.32h0Zm-7-3.43h0Zm3.54,2.11h0Zm4.48.92h0Zm.21,0h0ZM18.77,25h0Zm-1.32.47h0Zm-6.78-.64h0ZM8.09,22.86h0ZM5.81,19.15h0Zm.84,1.42ZM7,21H7Zm7,4h0Zm.18,0h0Zm4.12-.12Zm-.09.18h0s0,0,0,0Zm-1.32.72h0Zm-6.5-1.07,0,0,0,0h0Zm-.49-.26h0ZM4.48,16.31Zm.32-.72h0Zm.1.48Zm.09.26Zm1.67,4.25Zm6.16,4.24h0Zm4.85.06h0Zm0,.52h0Zm-.13.1h0Zm-.21.09h0ZM4.83,14.74h0ZM5,16.14H5Zm.16.68h0Zm3.15,5.36,0,0h0Zm.47.44h0Zm2.55,1.64,0,0h0Zm2.72.55Zm1.84.19h0Zm3.52-.37h0ZM19,25h0Zm-3.31.82h0Zm-4.89-1.91Zm3.43.9h0Zm3.14,0h0Zm3.12-.64h0Zm-3.92,1.86h0Zm-1.72-.13Zm-3.55-.66Zm-3.71-2.9h0ZM4.63,14.57Zm.11-.36h0Zm0-2.16v0h0ZM9.34,5.87ZM8.2,7.09h0ZM20.89,24l0,0Zm.29-.29h0Zm.22-.12.06,0h0Zm-3.61,2.11h0ZM15.7,26h0ZM14,26h0Zm-2.63-.66h0Zm-.79-.43h0ZM5.77,9.75l0,0h0Zm.9-1.65h0Zm2.07-2,0,0,0,0Zm.73-.62Zm5.18-2ZM9.58,6h0ZM6.68,8.8h0v0h0ZM5.24,12.14h0Zm-.32,1.53h0Zm.55,4.54v0h0Zm1,1.77h0Zm5.64,4.64h0s0,0,0,0Zm6,.79h0ZM14.11,26h0Zm-2.2-.44h0ZM4.57,17.22h0Zm.17-4h0ZM13,3.8Zm4.46-.08h0Zm1,.1h0Zm-7.58,20h0ZM22.28,23Zm-2.82,1.93h0Zm-1.31.44h0Zm-.07.33h0Zm-5,0Zm-1.63-.31Zm-1.07-.55h0ZM8.53,23.42h0ZM4.86,18.28h0ZM4.4,14.67h0Zm0-1.06Zm7.74-9.43,0,0,0,0Zm1.27-.44h0Zm1.81-.27h0Zm.32-.07h0Zm1.76.28h0ZM7.79,7.48h0ZM6.39,9.43h0v0Zm-.16.35Zm-.88,2h0ZM5,14.12s0,0,0,.06A.59.59,0,0,1,5,14.12Zm.1.54Zm1.72,5.69h0ZM10,23.24h0Zm.08,0h0Zm.84.53h0s0,0,0,0Zm3.14.88h0Zm4-.06h0Zm4-1.19h0Zm-3.67,2.32h0Zm-4.9.15h0Zm-2.53-.67h0Zm-.8-.45,0,0h0ZM6.52,21.43h0Zm2-15.31h0l0,0ZM11,4.39h0ZM12.28,4h0Zm2.58-.58Zm4,.48h0Zm-.78.53h0ZM10.22,5.47h0ZM8.37,7.1h0ZM5.45,17.83h0Zm8.7,6.83Zm2.23.22h0Zm7.2-3,0,0Zm-7.22,4.28h0Zm-12-12.63h0v0Zm.3-1.11h0ZM8.26,6.2l0,0Zm.1,0,0,0Zm1-.86Zm-3.84,6h0Zm-.05.12h0Zm6.9,12.78h0Zm5,.37h0ZM21.5,24h0Zm-1.83,1h0Zm0,.52h0Zm-.34.26,0,0,0,0Zm-6.83,0h0Zm-2.64-1h0ZM8.16,23.23h0s0,0,0,0h0ZM4.61,17.84h0Zm-.28-4.33ZM19.47,4.07h0Zm-1.57.31h0Zm-4.75.08h0Zm-2,19.33.06,0h0l-.06,0Zm9.53-.14h0Zm-.1.83h0Zm-1.6,1h0Zm-2.49.81h0ZM13,26h0ZM8.85,24h0v0Zm-.34-.23ZM7.2,22.58h0l0,0v0h0v0ZM5.28,19.47h0v0ZM4.7,11.6l0-.07ZM7.93,6.38h0ZM18.55,3.67h0Zm.56.92h0Zm-1.92-.33ZM14,4.2Zm-5.55,3h0Zm-3.18,8h0Zm8.58,9.36h0Zm2,.3Zm3.27-.6Zm1.31.42h0Zm-1.49,1ZM21,25.07h0Zm-6,1.25h0Zm-.36,0ZM13.32,26h0Zm-.57-.05h0Zm-1.17-.37h0Zm-1-.41h0ZM7.41,22.84l.18.14h0Zm-2-3.1h0ZM4.37,13.21h0ZM6.66,7.74h0Zm0-.06h0S6.66,7.68,6.66,7.68ZM9.5,5.16h0ZM12,3.88h0l0,0Zm4.18-.62h0Zm.55.12Zm1.79.23ZM19.87,4h0Zm-.34,1.1h0ZM19.39,5h0Zm-8.31.2h0ZM5.31,12.69v0Zm0,2.29h0Zm.11.38Zm4.67,7.77h0Zm5.7,1.6h0Zm7.65-3.28h0Zm.16-.1,0,0h0Zm.22.12,0,0v0ZM19.86,25h0Zm-.17.45h0Zm1-.3h0Zm1-.46h0Zm-2.46,1.16-.06,0Zm-3.08.5ZM14,26.25h0ZM8.71,23.92h0ZM5.81,20.43h0v0Zm-.33-.58ZM4.3,17.14h0a.22.22,0,0,0,0,.08A.44.44,0,0,0,4.3,17.14Zm-.19-2.55v0ZM8.34,5.81h0ZM19.74,3.92h0Zm0,.91Zm-2.36-.47h0Zm-1.66-.12h0ZM10.55,5.52h0ZM7.87,7.72Zm-.08.1h0Zm-2.34,8ZM8,21.16H8Zm8,3.63h0Zm8.74-2.86h0Zm-7.65,4.42h0Zm-1.92,0h0Zm-3.36-.71h0Zm-3.92-2.3s0,0,0,0h0l0,0h0l0,0ZM5.66,20.44h0ZM6.2,8.3h0ZM8.87,5.51h0Zm1.19-.72h0l0,0h0Zm1.76-.88h0Zm.4-.25Zm.33-.05h0ZM18,3.51ZM19.85,4.8h0ZM8.59,7.1h0ZM7,8.82H7ZM5.51,12.43h0Zm.08,4.73h0Zm0,.2v0Zm2.15,3.54h0Zm3.1,2.59h0Zm11.86-1.41,0,0h0Zm-.19.16Zm.68-.55h0Zm.74,0h0Zm-1.68,1.92h0Zm-.21.77h0Zm.63-.51h0l0,0Zm1.66-1.58h0Zm1.4-1.88h0Zm0,.3,0,0s0,0,0,0Zm-.05.19h0Zm-9.1,5.48h0ZM13.5,26.1h0Zm0,0h0Zm-1.84-.48h0Zm-2.07-1h0Zm-3.88-4ZM5,10.32H5Zm15.81-5.9h0Zm-.49-.06h0Zm-.74.89h0ZM12.4,4.87h0Zm-5.48,15h0Zm.37.28,0,0ZM19.71,23.9h0Zm3.84-2.77h0Zm2-3.61h0Zm0,3.15h0ZM23.2,23.81h0Zm-1.68,1.07h0Zm-5.24,1.5h0Zm-.15,0ZM10,25Zm-1-.73H9ZM5.42,20l-.06-.1a.24.24,0,0,1,.06.1ZM4.17,16.64v0Zm0-3.41h0ZM5.81,8.64h0ZM9.92,4.82h0Zm5.52-1.64Zm5.11,1h0Zm-.15.28h0Zm.36.54,0,0Zm-.79,0h0Zm-6.64-.25h0Zm-1.83.49h0l.06,0h0Zm-.07,0h0l0,0Zm-.9.43ZM9.94,6ZM5.68,12h0Zm-.3,2.86h0Zm.19,1.66h0ZM8.8,22.06h0ZM26.11,20.3v0h0ZM13.49,26.18h0ZM8.2,23.73h0Zm-2.54-3ZM4,14H4Zm.12-.85Zm7-9h0ZM23.84,7.32h0Zm.45.77h0Zm0-.1h0Zm-3.61-2.9h0Zm4.75,6.5h0Zm-.67-1.73h0Zm-2.22-3,0,0h0Zm-.18-.12h0ZM22,6.45h0Zm.59.46Zm2.07,2.61v0h0Zm-2-2.33h0Zm.23.2h0Zm2.88,5.11a.17.17,0,0,0,0,0,.16.16,0,0,1,0-.05h0Zm0-.08h0Zm-.1-.1Zm-1-2.24v0h0ZM6.18,18.46v0S6.19,18.47,6.18,18.46Zm8.08,6h0Zm9.84-3.37Zm.29.22Zm-1.56,1.93h0Zm-1.16,1.36h0ZM26,20.17h0l0,0ZM14.53,26.39h0Zm-1-.15h0ZM6.84,22.41h0l0,0h0Zm-2.6-5.15ZM9.15,5.13Zm12-.57h0Zm5,7.43h0ZM21.36,5.47h0Zm3.94,6.09v0h0Zm-1.4-2.67h0ZM9.14,6.81l0,0h0ZM8,7.78v0ZM8.9,22Zm12.87.68h0Zm2.07-2.21h0Zm1.6-2.94h0Zm-.15,1.1h0Zm-.86,2.07h0Zm-1.93,3.65h0Zm-1.1.68ZM18,26.31h0Zm-5.28-.24h0Zm-2.65-1,0,0,0,0Zm-4-3.6h0Zm-1.5-3ZM3.9,14.56h0Zm.61-3.09Zm.43-1.25h0Zm.27-.54ZM18.57,3.46h0Zm3.68,2.21.06,0h0Zm.69.62h0Zm1.4,1.54,0,0Zm1.64,3h0ZM22.44,6.34h0ZM20.78,5.24l-.06,0h0Zm0,.07Zm4.64,5.6h0S25.41,10.91,25.41,10.91Zm.36,1.84h0ZM24.08,9.1ZM21.31,6.26Zm0,0h0Zm-.26-.1h0Zm-1.78-.91ZM8.59,7.33l0,0,0,0Zm-3,8h0Zm20.26,1h0s0,0,0,0h0ZM21.3,24.58h0Zm1.5-1h0l0,0Zm0,0h0Zm-11.69,1.9h0ZM9.9,25h0s0,0,0,0h0Zm-2-1.43h0ZM4,14.13H4Zm.1-1.5h0Zm.82-2.24Zm5.36-6Zm6.42-1.27h0Zm1.65.22h0Zm1.88.55h0Zm1.76,1.52ZM23.3,6.58h0Zm-1.16-.25h0Zm3.68,6.89h0v-.05h0Zm-.75-2.08h0Zm-.42-1h0l0,.07h0ZM9.85,6.34h0Zm-1.09.84h0ZM7.63,20.38l0,0,0,0Zm8.93,4.14h0Zm8-3.54,0,0,0,0Zm1.51-1.29h0Zm.23-.42Zm.35-.21h0ZM16.29,26.51h0Zm-1.05,0h0Zm-1.88-.23h0Zm-6.3-3.57h0ZM4.57,11.2Zm4.32-6h0ZM14.75,3h0Zm6.53,1.83h0Zm1.17.9h0Zm3.78,5.58h0ZM21.68,5.81h0Zm2.63,2.88h0Zm1.21,2.46,0,0Zm0,1.5,0-.11h0A.52.52,0,0,1,25.52,12.65Zm-.23-.71h0Zm0,0ZM23,7.77h0Zm-.21-.27h0Zm-3.07-2.1h0Zm-.39-.15h0Zm-7-.2h0ZM7.54,8.57Zm-2,5.87h0Zm.34,3h0Zm1.69,2.78,0,0h0l0,0Zm7.29,4.17h0Zm1.68,0h0Zm3.06-.67h0ZM21,23.08h0Zm2.12-1.76h0Zm1.56-1.11h0Zm-.09.15Zm-3.82,4.42h0Zm1.78-1h0l.11-.08s0,0,0,0Zm4.17-5h0v0ZM12.37,26h0ZM3.86,15ZM21.3,4.5h0ZM24.54,8h0Zm2.07,6.25h0v0h0ZM25.4,10.77h0ZM14.88,4.58h0Zm-.54,0ZM8.06,7.95h0ZM6.7,19h0Zm.41.67v0h0Zm9.26,4.83Zm3.94-1.06s0,0,0,0Zm3.82-3.34h0Zm1.61-3.81v0ZM23,23.41h0ZM25.88,21h0Zm-2.19,2.57h0Zm-1.27,1h0Zm-2,1.07.1-.05ZM4.07,12.34h0Zm.15-.16h0ZM8.32,5.6h0l0,0ZM14.95,3h0ZM21.5,5.11h0l0,0h0ZM26,12.17ZM24.38,9.72ZM7.17,9.16h0ZM5.76,12.62v0h0ZM8.51,21.4h0ZM20,23.56h0Zm5.33-6Z"></path><path class="cls-1" d="M16.7,3h0Z"></path><path class="cls-1" d="M21.27,12a3.47,3.47,0,0,0-.62-1.84,3.29,3.29,0,0,0-2.52-1.29c-.93-.06-1.85,0-2.78,0H15a22.67,22.67,0,0,0-2.46.08,3.06,3.06,0,0,0-2.75,2.37,7.47,7.47,0,0,0-.17,1.79c0,.94,0,1.89,0,2.83a13.83,13.83,0,0,0,.08,1.73,3.09,3.09,0,0,0,2.35,2.75,8.57,8.57,0,0,0,1.79.16h2.84a13,13,0,0,0,1.7-.08,3.09,3.09,0,0,0,2.83-2.7,9.69,9.69,0,0,0,.1-1.73C21.32,14.7,21.36,13.36,21.27,12Zm-1,3.43c0,.62,0,1.24,0,1.86a2.32,2.32,0,0,1-.71,1.6,2.28,2.28,0,0,1-1.21.5,8.68,8.68,0,0,1-1.39.07H14a9.09,9.09,0,0,1-1.5-.09,2,2,0,0,1-1.77-1.88,12.62,12.62,0,0,1-.07-1.39c0-.95,0-1.91,0-2.87a9.17,9.17,0,0,1,.09-1.52A2,2,0,0,1,12.64,10c.46-.06.93-.06,1.39-.07h1.44c.87,0,1.74,0,2.6,0a2.25,2.25,0,0,1,1.62.74,2.28,2.28,0,0,1,.51,1.38C20.28,13.19,20.26,14.32,20.26,15.45Z"></path><path class="cls-1" d="M18.6,12.27a.7.7,0,1,1,.7-.71A.7.7,0,0,1,18.6,12.27Z"></path><path class="cls-1" d="M15.48,11.68a3,3,0,1,0,3,3A3,3,0,0,0,15.48,11.68Zm0,5a1.95,1.95,0,1,1,2-1.95A1.94,1.94,0,0,1,15.45,16.64Z"></path></svg>