<svg xmlns="http://www.w3.org/2000/svg" xmlns:xlink="http://www.w3.org/1999/xlink" id="Layer_1" x="0px" y="0px" viewBox="0 0 50 50" style="enable-background:new 0 0 50 50;" xml:space="preserve">
<style type="text/css">
	.st0{fill:#44230A;}
	.st1{fill:#354490;}
	.st2{fill:#AB414F;}
	.st3{fill:#E1B1CB;}
	.st4{fill:#070308;}
	.st5{fill:#AB414F;stroke:#AB414F;stroke-miterlimit:10;}
</style>
<polyline class="st0" points="42.9,33.7 45.2,33.7 45.2,27.4 48.2,27.4 48.2,42.6 42.9,42.6 "></polyline>
<polygon class="st1" points="36.9,24.6 36.9,26.3 39.9,26.3 39.9,33.6 43.1,33.6 43.1,40.1 43.1,42.6 33.7,42.6 33.7,45.6   24.9,45.6 24.9,48.5 12.8,48.5 12.8,44.6 12.8,43.1 15.9,43.1 15.9,40.2 12.6,40.2 12.6,37 10.3,37 10.3,33.9 18.8,33.9 18.8,36.2   21.5,36.2 21.5,32.4 24.1,32.4 24.1,28.5 21.1,28.5 21.1,23.9 "></polygon>
<polyline class="st2" points="25.7,24.6 25.7,27.5 28,27.5 28,30.5 37,30.5 37,27.8 33.9,27.8 33.9,24.6 "></polyline>
<g>
	<path class="st0" d="M16.3,39.5c-0.5,0-3.3,0-3.3,0v-2.7h-3v2.8H7v3.1H3.4v6.1h3.4v-3.2H13v-2.2h3.3V39.5z"></path>
</g>
<polyline class="st0" points="16.3,10.6 16.3,13.3 13.5,13.3 13.5,22.3 18.8,22.3 19,22.3 19,19 25.2,19 25.2,10.4 16.3,10.4   16.3,10.6 "></polyline>
<polygon class="st3" points="49,9 49,0.3 40.2,0.3 40.2,6.5 40.2,7.2 40.2,7.6 42.4,7.6 42.4,10.1 49.1,10.1 "></polygon>
<polygon class="st3" points="9.7,33.3 9.8,35.8 6.7,35.8 6.7,39 3.9,39 3.9,36 0.8,36 0.8,29.8 3.7,29.8 11.6,30.8 9.6,33.1 "></polygon>
<polygon class="st2" points="40.1,13 40.1,10.1 49.1,10.1 49.1,19.1 46.4,19.1 45.8,19.1 45.8,15.8 43.1,15.8 43.1,12.7 "></polygon>
<polygon class="st3" points="25.1,9.3 25.1,12.9 21.9,12.9 21.9,15.8 25.1,15.8 25.1,19 19,19 19,24.6 43,24.8 43,22 45.9,22   45.9,15.8 43.1,15.8 43.1,12.7 36.9,12.7 36.9,9.3 "></polygon>
<g>
	<polygon class="st2" points="15.8,10.7 15.8,7.4 18.9,7.4 18.9,4.2 31,4.2 31,7.3 43,7.3 43,10.5  "></polygon>
</g>
<path class="st0" d="M45.9,19.8h-8.5v-3h-3v2.9h-3v2.9h8.9v2.1H43V22h2.8C45.9,22,45.8,19.9,45.9,19.8z"></path>
<g>
	<rect x="31.1" y="10.7" class="st4" width="2.8" height="5.1"></rect>
</g>
<polygon class="st5" points="4.2,28.3 7.4,28.3 7.4,25.2 21.1,25.2 21.1,28.5 24.1,28.5 24.1,32.6 21.5,32.6 21.5,36.2 19,36.2   19,33.5 7.4,33.5 7.4,30 4.2,30 "></polygon>
</svg>